mtllib TestBlocks.mtl
o Default
v 1 -1 -1
v 1 0 -1
v 2 0 -1
v 2 -1 -1
v 0 -1 -1
v 1 0 -1
v 0 0 -1
v 1 -1 -1
v 0 0 0
v 1 0 -1
v 0 0 -1
v 1 0 0
v 1 0 0
v 2 0 -1
v 1 0 -1
v 2 0 0
v 10.5 -2.5 -4
v 11.5 -2.5 -5
v 10.5 -2.5 -5
v 11.5 -2.5 -4
v 0 0 1
v 1 0 0
v 0 0 0
v 1 0 1
v 0 0 -1
v 1 0 -2
v 0 0.5 -2
v 1 0 -1
v 1 0 -1
v 2 0 -2
v 1 0 -2
v 2 0 -1
v 2 0 0
v 3 0 -1
v 2 0 -1
v 3 0 0
v 2 0 -1
v 3 0 -2
v 2 0 -2
v 3 0 -1
v 3 0 -1
v 4 -0.5 -2
v 3 0 -2
v 4 0 -1
v 1 0 -2
v 2 0 -3
v 1 0 -3
v 2 0 -2
v 0 0.5 -2
v 1 0 -3
v 0 0 -3
v 1 0 -2
v 2 0 -2
v 3 0 -3
v 2 0 -3
v 3 0 -2
v 3 0 0
v 4 0 -1
v 3 0 -1
v 4 -0.5 0
v 3 0 1
v 4 -0.5 0
v 3 0 0
v 4 -0.5 1
v 4 -0.5 -2
v 5 0 -3
v 4 0 -3
v 5 -0.5 -2
v 3 0 -2
v 4 0 -3
v 3 0 -3
v 4 -0.5 -2
v 4 -0.5 1
v 5 -0.5 0
v 4 -0.5 0
v 5 -0.5 1
v 4 -0.5 0
v 5 -0.5 -1
v 4 0 -1
v 5 -0.5 0
v 4 0 -1
v 5 -0.5 -2
v 4 -0.5 -2
v 5 -0.5 -1
v 5 -0.5 1
v 5.5 -1 0
v 5 -0.5 0
v 5.5 -1 1
v 5 -0.5 0
v 5.5 -1 -1
v 5 -0.5 -1
v 5.5 -1 0
v 5 -0.5 -1
v 6 -0.5 -2
v 5 -0.5 -2
v 5.5 -1 -1
v 5 -0.5 -2
v 6 -0.5 -3
v 5 0 -3
v 6 -0.5 -2
v 6 -0.5 -2
v 7 -0.5 -3
v 6 -0.5 -2.5
v 7 -1 -2
v 5 -1 -2
v 6 -0.5 -3
v 5 -1 -3
v 6 -1 -1.5
v 5.5 -1 0
v 6 -1.5 -1
v 5.5 -1 -1
v 6 -1.5 0
v 5.5 -1 1
v 6 -1.5 0
v 5.5 -1 0
v 6 -1.5 1
v 6 -1 -1.5
v 7 -0.5 -3
v 5 0 -3
v 7 -1 -2
v 5.5 -1 -1
v 6 -0.5 -2
v 5 -1 -2
v 6 -1.5 -1
v 6.5 -1.5 -1
v 7 -1 -2
v 6.5 -1 -2
v 7.5 -2 -1
v 6 -1.5 -1
v 6.5 -1 -2
v 5.5 -0.5 -2
v 6.5 -1.5 -1
v 5.5 -1.5 1
v 6.5 -1.5 0
v 5.5 -1.5 0
v 6.5 -1.5 1
v 6.5 -1.5 1
v 7.5 -2 0
v 6.5 -1.5 0
v 7.5 -2 1
v 5.5 -1.5 0
v 6.5 -1.5 -1
v 5.5 -1.5 -1
v 6.5 -1.5 0
v 6.5 -1.5 0
v 7.5 -2 -1
v 6.5 -1.5 -1
v 7.5 -2 0
v 7.5 -2 1
v 8.5 -2.5 0
v 7.5 -2 0
v 8.5 -2.5 1
v 7.5 -2 0
v 8.5 -2.5 -1
v 7.5 -2 -1
v 8.5 -2.5 0
v 7 -1 -2
v 7.5 -2 -2
v 7 -0.5 -3
v 7.5 -2 -1
v 8 -2.5 -0.5
v 8.5 -2.5 -2
v 8 -2 -2.5
v 8.5 -2.5 -1
v 7 -2 -1
v 8 -2 -2.5
v 7 -2 -2
v 8 -2.5 -0.5
v 8.5 -2.5 1
v 9.5 -2.5 0
v 8.5 -2.5 0
v 9.5 -2.5 1
v 8.5 -2.5 0
v 9.5 -2.5 -1
v 8.5 -2.5 -1
v 9.5 -2.5 0
v 7.5 -2.5 1
v 6.5 -1.5 1
v 7.5 -1.5 1
v 6.5 -2.5 1
v 9.5 -2.5 1
v 10.5 -2.5 0
v 9.5 -2.5 0
v 10.5 -2.5 1
v 10.5 -2.5 0
v 11.5 -2.5 -1
v 10.5 -2.5 -1
v 11.5 -2.5 0
v 9.5 -2.5 0
v 10.5 -2.5 -1
v 9.5 -2.5 -1
v 10.5 -2.5 0
v 9.5 -2.5 -1
v 10.5 -2.5 -2
v 9.5 -2.5 -2
v 10.5 -2.5 -1
v 8.5 -2.5 1
v 7.5 -1.5 1
v 8.5 -1.5 1
v 7.5 -2.5 1
v 9.5 -2.5 -3
v 10.5 -2.5 -4
v 9.5 -2.5 -4
v 10.5 -2.5 -3
v 8.5 -2.5 -4
v 9.5 -2.5 -5
v 8.5 -2.5 -5
v 9.5 -2.5 -4
v 8.5 -2.5 -3
v 9.5 -2.5 -4
v 8.5 -2.5 -4
v 9.5 -2.5 -3
v 9.5 -2.5 -2
v 10.5 -2.5 -3
v 9.5 -2.5 -3
v 10.5 -2.5 -2
v 10.5 -2.5 1
v 11.5 -2.5 0
v 10.5 -2.5 0
v 11.5 -2.5 1
v 10.5 -2.5 -1
v 11.5 -2.5 -2
v 10.5 -2.5 -2
v 11.5 -2.5 -1
v 10.5 -2.5 -2
v 11.5 -2.5 -3
v 10.5 -2.5 -3
v 11.5 -2.5 -2
v 10.5 -2.5 -3
v 11.5 -2.5 -4
v 10.5 -2.5 -4
v 11.5 -2.5 -3
v 9.5 -2.5 -4
v 10.5 -2.5 -5
v 9.5 -2.5 -5
v 10.5 -2.5 -4
v 2 0 1
v 3 0 0
v 2 0 0
v 3 0 1
v 1 0 1
v 2 0 0
v 1 0 0
v 2 0 1
v 1 0 2
v 2 0 1
v 1 0 1
v 2 0 2
v 0 0 2
v 1 0 1
v 0 0 1
v 1 0 2
v 0 0 4
v 1 0 3
v 0 0 3
v 1 0 4
v 1 0 4
v 2 0 3
v 1 0 3
v 2 0 4
v 2 0 4
v 3 0 3
v 2 0 3
v 3 0 4
v 1 0 5
v 2 0 4
v 1 0 4
v 2 0 5
v 1 0 3
v 2 0 2
v 1 0 2
v 2 0 3
v 2 0 2
v 3 0 1
v 2 0 1
v 3 0 2
v 4 0 4
v 5 0 3
v 4 0 3
v 5 0 4
v 4 0 3
v 5 0 2
v 4 0 2
v 5 0 3
v 2 0 5
v 3 0 4
v 2 0 4
v 3 0 5
v 0 0 6
v 1 0 5
v 0 0 5
v 1 0 6
v 0 0 5
v 1 0 4
v 0 0 4
v 1 0 5
v 1 0 6
v 2 0 5
v 1 0 5
v 2 0 6
v 3 0 6
v 4 0 5
v 3 0 5
v 4 0 6
v 2 0 6
v 3 0 5
v 2 0 5
v 3 0 6
v 4 0 6
v 5 0 5
v 4 0 5
v 5 0 6
v 4 0 5
v 5 0 4
v 4 0 4
v 5 0 5
v 0 0 3
v 1 0 2
v 0 0 2
v 1 0 3
v 3 0 4
v 4 0 3
v 3 0 3
v 4 0 4
v 3 0 5
v 4 0 4
v 3 0 4
v 4 0 5
v 3 0 3
v 4 0 2
v 3 0 2
v 4 0 3
v 2 0 3
v 3 0 2
v 2 0 2
v 3 0 3
v 3 0 2
v 4 -0.5 1
v 3 0 1
v 4 0 2
v 4 0 2
v 5 -0.5 1
v 4 -0.5 1
v 5 0 2
v 0 1 7
v 1 0 6
v 0 0 6
v 1 1 7
v 1 1 7
v 2 0 6
v 1 0 6
v 2 1 7
v 2 1 7
v 3 0 6
v 2 0 6
v 3 1 7
v 3 1 7
v 4 0 6
v 3 0 6
v 4 1 7
v 4 1 7
v 5 0 6
v 4 0 6
v 5 1 7
v 5 1 7
v 4 2 7
v 5 2 7
v 4 1 7
v 4 1 7
v 3 2 7
v 4 2 7
v 3 1 7
v 3 1 7
v 2 2 7
v 3 2 7
v 2 1 7
v 2 1 7
v 1 2 7
v 2 2 7
v 1 1 7
v 1 1 7
v 0 2 7
v 1 2 7
v 0 1 7
v 5 2 7
v 4 3 7
v 5 3 7
v 4 2 7
v 4 2 7
v 3 3 7
v 4 3 7
v 3 2 7
v 2 2 7
v 1 3 7
v 2 3 7
v 1 2 7
v 3 2 7
v 2 3 7
v 3 3 7
v 2 2 7
v 1 2 7
v 0 3 7
v 1 3 7
v 0 2 7
v 5 3 7
v 4 4 7
v 5 4 7
v 4 3 7
v 4 3 7
v 3 4 7
v 4 4 7
v 3 3 7
v 2 3 7
v 1 4 7
v 2 4 7
v 1 3 7
v 3 3 7
v 2 4 7
v 3 4 7
v 2 3 7
v 1 3 7
v 0 4 7
v 1 4 7
v 0 3 7
v 0 1 7
v 1 2 7
v 0 2 7
v 1 1 7
v 1 1 7
v 2 2 7
v 1 2 7
v 2 1 7
v 2 1 7
v 3 2 7
v 2 2 7
v 3 1 7
v 3 1 7
v 4 2 7
v 3 2 7
v 4 1 7
v 4 1 7
v 5 2 7
v 4 2 7
v 5 1 7
v 2 2 7
v 3 3 7
v 2 3 7
v 3 2 7
v 3 2 7
v 4 3 7
v 3 3 7
v 4 2 7
v 4 2 7
v 5 3 7
v 4 3 7
v 5 2 7
v 0 2 7
v 1 3 7
v 0 3 7
v 1 2 7
v 1 2 7
v 2 3 7
v 1 3 7
v 2 2 7
v 2 3 7
v 3 4 7
v 2 4 7
v 3 3 7
v 4 3 7
v 5 4 7
v 4 4 7
v 5 3 7
v 3 3 7
v 4 4 7
v 3 4 7
v 4 3 7
v 0 3 7
v 1 4 7
v 0 4 7
v 1 3 7
v 1 3 7
v 2 4 7
v 1 4 7
v 2 3 7
v 0 7 7
v 1 8 7
v 0 8 7
v 1 7 7
v 1 5 7
v 2 6 7
v 1 6 7
v 2 5 7
v 1 6 7
v 2 7 7
v 1 7 7
v 2 6 7
v 2 7 7
v 3 8 7
v 2 8 7
v 3 7 7
v 2 4 7
v 3 5 7
v 2 5 7
v 3 4 7
v 0 5 7
v 1 6 7
v 0 6 7
v 1 5 7
v 0 6 7
v 1 7 7
v 0 7 7
v 1 6 7
v 3 4 7
v 4 5 7
v 3 5 7
v 4 4 7
v 0 4 7
v 1 5 7
v 0 5 7
v 1 4 7
v 4 5 7
v 5 6 7
v 4 6 7
v 5 5 7
v 4 6 7
v 5 7 7
v 4 7 7
v 5 6 7
v 2 6 7
v 3 7 7
v 2 7 7
v 3 6 7
v 2 5 7
v 3 6 7
v 2 6 7
v 3 5 7
v 4 7 7
v 5 8 7
v 4 8 7
v 5 7 7
v 1 7 7
v 2 8 7
v 1 8 7
v 2 7 7
v 3 5 7
v 4 6 7
v 3 6 7
v 4 5 7
v 4 4 7
v 5 5 7
v 4 5 7
v 5 4 7
v 3 6 7
v 4 7 7
v 3 7 7
v 4 6 7
v 1 4 7
v 2 5 7
v 1 5 7
v 2 4 7
v 3 7 7
v 4 8 7
v 3 8 7
v 4 7 7
v 4 4 7
v 3 5 7
v 4 5 7
v 3 4 7
v 2 6 7
v 1 7 7
v 2 7 7
v 1 6 7
v 4 6 7
v 3 7 7
v 4 7 7
v 3 6 7
v 4 7 7
v 3 8 7
v 4 8 7
v 3 7 7
v 2 4 7
v 1 5 7
v 2 5 7
v 1 4 7
v 5 6 7
v 4 7 7
v 5 7 7
v 4 6 7
v 1 7 7
v 0 8 7
v 1 8 7
v 0 7 7
v 1 5 7
v 0 6 7
v 1 6 7
v 0 5 7
v 1 6 7
v 0 7 7
v 1 7 7
v 0 6 7
v 2 5 7
v 1 6 7
v 2 6 7
v 1 5 7
v 3 5 7
v 2 6 7
v 3 6 7
v 2 5 7
v 3 4 7
v 2 5 7
v 3 5 7
v 2 4 7
v 5 5 7
v 4 6 7
v 5 6 7
v 4 5 7
v 3 7 7
v 2 8 7
v 3 8 7
v 2 7 7
v 3 6 7
v 2 7 7
v 3 7 7
v 2 6 7
v 2 7 7
v 1 8 7
v 2 8 7
v 1 7 7
v 4 5 7
v 3 6 7
v 4 6 7
v 3 5 7
v 1 4 7
v 0 5 7
v 1 5 7
v 0 4 7
v 5 4 7
v 4 5 7
v 5 5 7
v 4 4 7
v 5 7 7
v 4 8 7
v 5 8 7
v 4 7 7
v 5 0 6
v 6 0 5
v 5 0 5
v 6 0 6
v 5 0 5
v 6 0 4
v 5 0 4
v 6 0 5
v 5 0 4
v 6 0 3
v 5 0 3
v 6 0 4
v 5 0 3
v 6 0 2
v 5 0 2
v 6 0 3
v 6 0 4
v 7 0 3
v 6 0 3
v 7 0 4
v 6 0 5
v 7 0 4
v 6 0 4
v 7 0 5
v 6 0 6
v 7 0 5
v 6 0 5
v 7 0 6
v 7 0 4
v 8 0 3
v 7 0 3
v 8 0 4
v 7 0 5
v 8 0 4
v 7 0 4
v 8 0 5
v 7 0 6
v 8 0 5
v 7 0 5
v 8 0 6
v 6 0 3
v 7 0 2
v 6 0 2
v 7 0 3
v 7 0 3
v 8 0 2
v 7 0 2
v 8 0 3
v 8 0 4
v 9 0 3
v 8 0 3
v 9 0 4
v 10 0 3
v 11 0 2
v 10 0 2
v 11 0 3
v 9 0 6
v 10 0 5
v 9 0 5
v 10 0 6
v 11 0 5
v 12 0 4
v 11 0 4
v 12 0 5
v 10 0 4
v 11 0 3
v 10 0 3
v 11 0 4
v 8 0 5
v 9 0 4
v 8 0 4
v 9 0 5
v 8 0 3
v 9 0 2
v 8 0 2
v 9 0 3
v 9 0 5
v 10 0 4
v 9 0 4
v 10 0 5
v 11 0 6
v 12 0 5
v 11 0 5
v 12 0 6
v 10 0 6
v 11 0 5
v 10 0 5
v 11 0 6
v 8 0 6
v 9 0 5
v 8 0 5
v 9 0 6
v 9 0 3
v 10 0 2
v 9 0 2
v 10 0 3
v 9 0 4
v 10 0 3
v 9 0 3
v 10 0 4
v 10 0 5
v 11 0 4
v 10 0 4
v 11 0 5
v 11 0 3
v 12 0 2
v 11 0 2
v 12 0 3
v 11 0 4
v 12 0 3
v 11 0 3
v 12 0 4
v 11 0 2
v 12 -0.5 1
v 11 -0.5 1
v 12 0 2
v 9 0 2
v 10 -0.5 1
v 9 -0.5 1
v 10 0 2
v 10 0 2
v 11 -0.5 1
v 10 -0.5 1
v 11 0 2
v 8 0 2
v 9 -0.5 1
v 8 -0.5 1
v 9 0 2
v 7 0 2
v 8 -0.5 1
v 7 -0.5 1
v 8 0 2
v 6 0 2
v 7 -0.5 1
v 6 -0.5 1
v 7 0 2
v 5 0 2
v 6 -0.5 1
v 5 -0.5 1
v 6 0 2
v 10.5 -1.5 1
v 9.5 -0.5 1
v 10.5 -0.5 1
v 9.5 -1.5 1
v 10.5 -2.5 1
v 9.5 -1.5 1
v 10.5 -1.5 1
v 9.5 -2.5 1
v 8.5 -1.5 1
v 7.5 -0.5 1
v 8.5 -0.5 1
v 7.5 -1.5 1
v 9.5 -1.5 1
v 8.5 -0.5 1
v 9.5 -0.5 1
v 8.5 -1.5 1
v 7.5 -1.5 1
v 6.5 -0.5 1
v 7.5 -0.5 1
v 6.5 -1.5 1
v 6.5 -1.5 1
v 5.5 -0.5 1
v 6.5 -0.5 1
v 5.5 -1.5 1
v 5.5 -1.5 1
v 4.5 -0.5 1
v 5.5 -0.5 1
v 4.5 -1.5 1
v 11.5 -2.5 1
v 10.5 -1.5 1
v 11.5 -1.5 1
v 10.5 -2.5 1
v 11.5 -1.5 1
v 10.5 -0.5 1
v 11.5 -0.5 1
v 10.5 -1.5 1
v 9.5 -2.5 1
v 8.5 -1.5 1
v 9.5 -1.5 1
v 8.5 -2.5 1
v 8.5 -2.5 -1
v 9.5 -2.5 -2
v 8.5 -2.5 -2
v 9.5 -2.5 -1
v 8.5 -2.5 -2
v 9.5 -2.5 -3
v 8.5 -2.5 -3
v 9.5 -2.5 -2
v 7.5 -2 -2
v 8.5 -2.5 -3
v 7.5 -2.5 -3
v 8.5 -2.5 -2
v 7.5 -2.5 -3
v 8.5 -2.5 -4
v 7.5 -2.5 -4
v 8.5 -2.5 -3
v 7.5 -2.5 -4
v 8.5 -2.5 -5
v 7.5 -2.5 -5
v 8.5 -2.5 -4
v 6.5 -2.5 -4
v 7.5 -2.5 -5
v 6.5 -2.5 -5
v 7.5 -2.5 -4
v 6.5 -2.5 -3
v 7.5 -2.5 -4
v 6.5 -2.5 -4
v 7.5 -2.5 -3
v 6.5 -0.5 -2.5
v 7.5 -2.5 -3
v 6.5 -2.5 -3
v 7.5 -2 -2
v 9.5 -2.5 -5
v 11.5 -2.5 -7
v 9.5 -2.5 -7
v 11.5 -2.5 -5
v 7.5 -2.5 -5
v 9.5 -2.5 -7
v 7.5 -2.5 -7
v 9.5 -2.5 -5
v 9.5 -2.5 -9
v 11.5 -2.5 -11
v 9.5 -2.5 -11
v 11.5 -2.5 -9
v 5.5 -2.5 -11
v 7.5 -2.5 -13
v 5.5 -2.5 -13
v 7.5 -2.5 -11
v 9.5 -2.5 -15
v 11.5 -2.5 -17
v 9.5 -2.5 -17
v 11.5 -2.5 -15
v 7.5 -2.5 -7
v 9.5 -2.5 -9
v 7.5 -2.5 -9
v 9.5 -2.5 -7
v 9.5 -2.5 -7
v 11.5 -2.5 -9
v 9.5 -2.5 -9
v 11.5 -2.5 -7
v 7.5 -2.5 -11
v 9.5 -2.5 -13
v 7.5 -2.5 -13
v 9.5 -2.5 -11
v 7.5 -2.5 -13
v 9.5 -2.5 -15
v 7.5 -2.5 -15
v 9.5 -2.5 -13
v 9.5 -2.5 -11
v 11.5 -2.5 -13
v 9.5 -2.5 -13
v 11.5 -2.5 -11
v 5.5 -2.5 -5
v 7.5 -2.5 -7
v 5.5 -2.5 -7
v 7.5 -2.5 -5
v 5.5 -2.5 -9
v 7.5 -2.5 -11
v 5.5 -2.5 -11
v 7.5 -2.5 -9
v 7.5 -2.5 -9
v 9.5 -2.5 -11
v 7.5 -2.5 -11
v 9.5 -2.5 -9
v 5.5 -2.5 -7
v 7.5 -2.5 -9
v 5.5 -2.5 -9
v 7.5 -2.5 -7
v 9.5 -2.5 -13
v 11.5 -2.5 -15
v 9.5 -2.5 -15
v 11.5 -2.5 -13
v 5.5 -2.5 -13
v 7.5 -2.5 -15
v 5.5 -2.5 -15
v 7.5 -2.5 -13
v 5.5 -2.5 -15
v 7.5 -1.5 -17
v 5.5 -1.5 -17
v 7.5 -2.5 -15
v 7.5 -2.5 -15
v 9.5 -2.5 -17
v 7.5 -1.5 -17
v 9.5 -2.5 -15
v 5.5 -1.5 -17
v 7.5 -2 -18
v 6 -1.5 -16.5
v 7.5 -1.5 -17
v 7.5 -1.5 -17
v 8.5 -2 -18
v 7.5 -2 -18
v 8.5 -2 -17
v 8.5 -2 -17
v 9.5 -2 -18
v 8.5 -2 -18
v 9.5 -2.5 -17
v 9.5 -2.5 -17
v 10.5 -2 -18
v 9.5 -2 -18
v 10.5 -2.5 -17
v 10.5 -2.5 -17
v 11.5 -2 -18
v 10.5 -2 -18
v 11.5 -2.5 -17
v 9.5 -2 -18
v 11.5 -2 -20
v 9.5 -2 -20
v 11.5 -2 -18
v 7.5 -2 -18
v 9.5 -2 -20
v 7.5 -2 -20
v 9.5 -2 -18
v 7.5 -2 -20
v 8.5 -2 -21
v 7.5 -2 -21
v 8.5 -2 -20
v 9.5 -2 -20
v 11.5 -2 -22
v 9.5 -2 -22
v 11.5 -2 -20
v 8.5 -2 -20
v 9.5 -2 -21
v 8.5 -2 -21
v 9.5 -2 -20
v 8.5 -2 -21
v 9.5 -2 -22
v 8.5 -2 -22
v 9.5 -2 -21
v 11.5 -2 -19
v 12.5 -2 -20
v 11.5 -2 -20
v 12.5 -2 -19
v 11.5 -2 -20
v 13.5 -2 -22
v 11.5 -2 -22
v 13.5 -2 -20
v 9.5 -2 -22
v 11.5 -2 -24
v 9.5 -2 -24
v 11.5 -2 -22
v 11.5 -2 -22
v 13.5 -2 -23
v 11.5 -2 -23
v 13.5 -2 -22
v 11.5 -2 -23
v 12.5 -2 -24
v 11.5 -2 -24
v 12.5 -2 -23
v 12.5 -2 -23
v 13.5 -2 -24
v 12.5 -2 -24
v 13.5 -2 -23
v 11.5 -2 -18
v 12.5 -2 -19
v 11.5 -2 -19
v 12.5 -2 -18
v 4.5 0 -4.5
v 5.5 -2.5 -5
v 3.5 -1.5 -4
v 5.5 -2.5 -4
v 4.5 0 -3
v 5.5 -2.5 -4
v 4.5 0 -4.5
v 7 -0.5 -3
v 4.5 -2.5 -2
v 7 -0.5 -3
v 4.5 0 -3
v 5.5 -2.5 -2
v 4.5 -2.5 -1
v 5.5 -2.5 -2
v 4.5 -2.5 -2
v 5.5 -2.5 -1
v 5.5 -2.5 -4
v 6.5 -2.5 -5
v 5.5 -2.5 -5
v 6.5 -2.5 -4
v 7 -0.5 -3
v 6.5 -2.5 -4
v 5.5 -2.5 -4
v 6.5 -2.5 -3
v 5.5 -2.5 -2
v 6.5 -2.5 -3
v 7 -0.5 -3
v 6.5 -0.5 -2.5
v 3.5 -1.5 -6
v 5.5 -2.5 -8
v 3.5 -1.5 -8
v 5.5 -2.5 -6
v 3.5 -1.5 -8
v 5.5 -2.5 -10
v 3.5 -1.5 -10
v 5.5 -2.5 -8
v 3.5 -1.5 -10
v 5.5 -2.5 -12
v 3.5 -1.5 -12
v 5.5 -2.5 -10
v 3.5 -1.5 -12
v 5.5 -2.5 -14
v 3.5 -1.5 -14
v 5.5 -2.5 -12
v 3.5 -1.5 -14
v 5.5 -2.5 -15
v 3.5 -1.5 -15
v 5.5 -2.5 -14
v 3.5 -1.5 -4
v 5.5 -2.5 -6
v 3.5 -1.5 -6
v 5.5 -2.5 -5
v 3.5 -1.5 -4
v 3.5 -0.5 -6
v 4.5 -0.5 -4
v 3.5 -1.5 -6
v 3.5 0.5 -6
v 3.5 1.5 -7
v 3.5 1.5 -6
v 3.5 0.5 -7
v 3.5 -1.5 -7
v 3.5 -0.5 -8
v 3.5 -0.5 -7
v 3.5 -1.5 -8
v 3.5 -1.5 -6
v 3.5 -0.5 -7
v 3.5 -0.5 -6
v 3.5 -1.5 -7
v 3.5 -0.5 -6
v 3.5 0.5 -7
v 3.5 0.5 -6
v 3.5 -0.5 -7
v 3.5 1 -4
v 3.5 1.5 -6
v 3.5 1.5 -5
v 3.5 0.5 -6
v 3.5 0.5 -7
v 3.5 1.5 -8
v 3.5 1.5 -7
v 3.5 0.5 -8
v 3.5 -0.5 -7
v 3.5 0.5 -8
v 3.5 0.5 -7
v 3.5 -0.5 -8
v 4.5 -0.5 -4
v 3.5 0.5 -6
v 3.5 1 -4
v 3.5 -0.5 -6
v 3.5 -1.5 -9
v 3.5 0.5 -11
v 3.5 0.5 -9
v 3.5 -1.5 -11
v 3.5 -1.5 -11
v 3.5 0.5 -13
v 3.5 0.5 -11
v 3.5 -1.5 -13
v 3.5 0.5 -11
v 3.5 2.5 -13
v 3.5 2.5 -11
v 3.5 0.5 -13
v 3.5 0.5 -9
v 3.5 2.5 -11
v 3.5 2.5 -9
v 3.5 0.5 -11
v 3.5 2.5 -7
v 3.5 4.5 -9
v 3.5 4.5 -7
v 3.5 2.5 -9
v 3.5 2.5 -9
v 3.5 4.5 -11
v 3.5 4.5 -9
v 3.5 2.5 -11
v 3.5 2.5 -11
v 3.5 4.5 -13
v 3.5 4.5 -11
v 3.5 2.5 -13
v 3.5 -1.5 -13
v 3.5 0.5 -15
v 3.5 0.5 -13
v 3.5 -1.5 -15
v 3.5 0.5 -13
v 3.5 2.5 -15
v 3.5 2.5 -13
v 3.5 0.5 -15
v 3.5 2.5 -13
v 3.5 4.5 -15
v 3.5 4.5 -13
v 3.5 2.5 -15
v 3.5 -1.5 -8
v 3.5 0.5 -9
v 3.5 0.5 -8
v 3.5 -1.5 -9
v 3.5 0.5 -8
v 3.5 2.5 -9
v 3.5 2.5 -8
v 3.5 0.5 -9
v 3.5 1.5 -5
v 3.5 2.5 -7
v 3.5 2.5 -5
v 3.5 1.5 -7
v 3.5 1.5 -7
v 3.5 2.5 -8
v 3.5 2.5 -7
v 3.5 1.5 -8
v 3.5 2.5 -6
v 3.5 3.5 -7
v 3.5 3.5 -6
v 3.5 2.5 -7
v 3.5 3.5 -6
v 3.5 4.5 -7
v 3.5 4.5 -6
v 3.5 3.5 -7
v 3.5 2.5 -5
v 3.5 3.5 -6
v 3.5 3.5 -5
v 3.5 2.5 -6
v 3.5 3.5 -5
v 3.5 4.5 -6
v 3.5 4.5 -5
v 3.5 3.5 -6
v 1.5 0 -3
v 2.5 1 -4
v 1.5 1 -4
v 2.5 0 -3
v 2.5 0 -3
v 3.5 1 -4
v 2.5 1 -4
v 3.5 0 -3
v 3.5 0 -3
v 4.5 0 -4.5
v 3.5 1 -4
v 4.5 0 -3
v 0.5 0 -3
v 1.5 1 -4
v 0.5 1 -4
v 1.5 0 -3
v -0.5 0 -3
v 0.5 1 -4
v -0.5 1 -4
v 0.5 0 -3
v 3.5 4 -8
v 2.5 5 -9
v 2.5 5 -8
v 3.5 4 -9
v 1.5 3.5 -18
v 0.5 4.5 -18
v 1.5 4.5 -18
v 0.5 3.5 -18
v 3.5 4 -14
v 2.5 5 -15
v 2.5 5 -14
v 3.5 4 -15
v 2.5 2 -4
v 3.5 3 -5
v 2.5 3 -4
v 3.5 1.5 -5
v 2.5 3 -4
v 3.5 4 -5
v 2.5 4 -4
v 3.5 3 -5
v 3.5 4 -16
v 2.5 5 -17
v 2.5 5 -16
v 3 4 -17.5
v 2.5 4 -4
v 3.5 4.5 -5
v 2.5 5 -4
v 3.5 4 -5
v 3.5 4 -12
v 2.5 5 -13
v 2.5 5 -12
v 3.5 4 -13
v 3 4 -17.5
v 2.5 5 -18
v 2.5 5 -17
v 2.5 4 -18
v 3.5 4 -11
v 2.5 5 -12
v 2.5 5 -11
v 3.5 4 -12
v 3.5 4 -15
v 2.5 5 -16
v 2.5 5 -15
v 3.5 4 -16
v 2.5 1 -4
v 3.5 1.5 -5
v 2.5 2 -4
v 3.5 1 -4
v 1.5 4 -4
v 2.5 5 -4
v 1.5 5 -4
v 2.5 4 -4
v -0.5 5 -4
v 0.5 6 -5
v -0.5 6 -5
v 0.5 5 -4
v 0.5 5 -4
v 1.5 6 -5
v 0.5 6 -5
v 1.5 5 -4
v 1.5 5 -4
v 3.5 4.5 -5
v 1.5 6 -5
v 2.5 5 -4
v 1.5 6 -5
v 2.5 6 -6
v 1.5 6 -6
v 3.5 4.5 -5
v 3.5 4.5 -5
v 3.5 4.5 -6
v 2.5 6 -6
v 3.5 4.5 -5
v 0.5 6 -5
v 1.5 6 -6
v 0.5 6 -6
v 1.5 6 -5
v -0.5 6 -5
v 0.5 6 -6
v -0.5 6 -6
v 0.5 6 -5
v 0.5 6 -6
v 1.5 6 -7
v 0.5 6 -7
v 1.5 6 -6
v 1.5 6 -6
v 2.5 6 -7
v 1.5 6 -7
v 2.5 6 -6
v -0.5 6 -6
v 0.5 6 -7
v -0.5 6 -7
v 0.5 6 -6
v 0.5 6 -7
v 1.5 6 -8
v 0.5 6 -8
v 1.5 6 -7
v -0.5 6 -7
v 0.5 6 -8
v -0.5 6 -8
v 0.5 6 -7
v 1.5 6 -7
v 2.5 6 -8
v 1.5 6 -8
v 2.5 6 -7
v 3 3.5 -17.5
v 1.5 4.5 -18
v 3 4.5 -17.5
v 1.5 3.5 -18
v 1.5 6 -9
v 2.5 6 -10
v 1.5 6 -10
v 2.5 6 -9
v -0.5 6 -15
v 0.5 6 -16
v -0.5 6 -16
v 0.5 6 -15
v 0.5 6 -10
v 1.5 6 -11
v 0.5 6 -11
v 1.5 6 -10
v 1.5 6 -13
v 2.5 6 -14
v 1.5 6 -14
v 2.5 6 -13
v -0.5 6 -12
v 0.5 6 -13
v -0.5 6 -13
v 0.5 6 -12
v 0.5 6 -9
v 1.5 6 -10
v 0.5 6 -10
v 1.5 6 -9
v -0.5 6 -14
v 0.5 6 -15
v -0.5 6 -15
v 0.5 6 -14
v -1.5 6 -14
v -0.5 6 -15
v -1.5 6 -15
v -0.5 6 -14
v 0.5 6 -11
v 1.5 6 -12
v 0.5 6 -12
v 1.5 6 -11
v 3.5 -2 -17.5
v 1.5 -0.5 -18
v 3.5 -2 -17.5
v 1.5 -2 -18
v 0.5 6 -16
v 1.5 6 -17
v 0.5 6 -17
v 1.5 6 -16
v 1.5 6 -16
v 2.5 6 -17
v 1.5 6 -17
v 2.5 6 -16
v 0.5 6 -15
v 1.5 6 -16
v 0.5 6 -16
v 1.5 6 -15
v 1.5 4.5 -18
v 0.5 5.5 -18
v 1.5 5.5 -18
v 0.5 4.5 -18
v 1.5 6 -17
v 2.5 5 -18
v 1.5 5.5 -18
v 2.5 6 -17
v -0.5 6 -13
v 0.5 6 -14
v -0.5 6 -14
v 0.5 6 -13
v -1.5 6 -11
v -0.5 6 -12
v -1.5 6 -12
v -0.5 6 -11
v 0.5 6 -12
v 1.5 6 -13
v 0.5 6 -13
v 1.5 6 -12
v 1.5 6 -11
v 2.5 6 -12
v 1.5 6 -12
v 2.5 6 -11
v -0.5 6 -10
v 0.5 6 -11
v -0.5 6 -11
v 0.5 6 -10
v 1.5 6 -10
v 2.5 6 -11
v 1.5 6 -11
v 2.5 6 -10
v -0.5 6 -11
v 0.5 6 -12
v -0.5 6 -12
v 0.5 6 -11
v 1.5 6 -15
v 2.5 6 -16
v 1.5 6 -16
v 2.5 6 -15
v 0.5 6 -14
v 1.5 6 -15
v 0.5 6 -15
v 1.5 6 -14
v -0.5 6 -16
v 0.5 6 -17
v -0.5 6 -17
v 0.5 6 -16
v 0.5 6 -17
v 1.5 5.5 -18
v 0.5 5.5 -18
v 1.5 6 -17
v 3 2.5 -17.5
v 1.5 3.5 -18
v 3 3.5 -17.5
v 1.5 2.5 -18
v 1.5 6 -14
v 2.5 6 -15
v 1.5 6 -15
v 2.5 6 -14
v 0.5 6 -13
v 1.5 6 -14
v 0.5 6 -14
v 1.5 6 -13
v 1.5 6 -12
v 2.5 6 -13
v 1.5 6 -13
v 2.5 6 -12
v -1.5 6 -12
v -0.5 6 -13
v -1.5 6 -13
v -0.5 6 -12
v -1.5 6 -7
v -0.5 6 -8
v -1.5 6 -8
v -0.5 6 -7
v -1.5 6 -6
v -0.5 6 -7
v -1.5 6 -7
v -0.5 6 -6
v -0.5 6 -8
v 0.5 6 -9
v -0.5 6 -9
v 0.5 6 -8
v 0.5 6 -8
v 1.5 6 -9
v 0.5 6 -9
v 1.5 6 -8
v -0.5 6 -9
v 0.5 6 -10
v -0.5 6 -10
v 0.5 6 -9
v -1.5 6 -8
v -0.5 6 -9
v -1.5 6 -9
v -0.5 6 -8
v -1.5 6 -10
v -0.5 6 -11
v -1.5 6 -11
v -0.5 6 -10
v -1.5 6 -9
v -0.5 6 -10
v -1.5 6 -10
v -0.5 6 -9
v 1.5 6 -8
v 2.5 6 -9
v 1.5 6 -9
v 2.5 6 -8
v -1.5 6 -13
v -0.5 6 -14
v -1.5 6 -14
v -0.5 6 -13
v -1.5 6 -15
v -0.5 6 -16
v -1.5 6 -16
v -0.5 6 -15
v -1.5 6 -16
v -0.5 6 -17
v -1.5 6 -17
v -0.5 6 -16
v -0.5 6 -17
v 0.5 5.5 -18
v -0.5 5.5 -18
v 0.5 6 -17
v 0.5 4.5 -18
v -0.5 5.5 -18
v 0.5 5.5 -18
v -0.5 4.5 -18
v -1.5 6 -17
v -0.5 5.5 -18
v -1.5 5.5 -18
v -0.5 6 -17
v 3 4 -17.5
v 1.5 5.5 -18
v 2.5 5 -18
v 1.5 4 -18
v -0.5 -2 -18
v -1.5 -0.5 -18
v -0.5 -0.5 -18
v -1.5 -2 -18
v 1.5 -2 -18
v 0.5 -0.5 -18
v 1.5 -0.5 -18
v 0.5 -2 -18
v 0.5 -2 -18
v -0.5 -0.5 -18
v 0.5 -0.5 -18
v -0.5 -2 -18
v 3 5 -6
v 2.5 6 -7
v 2.5 6 -6
v 2.5 5 -7
v 2.5 5 -7
v 2.5 6 -8
v 2.5 6 -7
v 2.5 5 -8
v 2.5 5 -8
v 2.5 6 -9
v 2.5 6 -8
v 2.5 5 -9
v 2.5 5 -11
v 2.5 6 -12
v 2.5 6 -11
v 2.5 5 -12
v 2.5 5 -10
v 2.5 6 -11
v 2.5 6 -10
v 2.5 5 -11
v -1.5 -2 -18
v -2.5 -0.5 -18
v -1.5 -0.5 -18
v -2.5 -2 -18
v 2.5 5 -13
v 2.5 6 -14
v 2.5 6 -13
v 2.5 5 -14
v 1.5 2.5 -18
v 0.5 3.5 -18
v 1.5 3.5 -18
v 0.5 2.5 -18
v 2.5 5 -9
v 2.5 6 -10
v 2.5 6 -9
v 2.5 5 -10
v 2.5 5 -15
v 2.5 6 -16
v 2.5 6 -15
v 2.5 5 -16
v 2.5 5 -16
v 2.5 6 -17
v 2.5 6 -16
v 2.5 5 -17
v 2.5 5 -14
v 2.5 6 -15
v 2.5 6 -14
v 2.5 5 -15
v 2.5 5 -17
v 2.5 5 -18
v 2.5 6 -17
v 2.5 5 -18
v 2.5 5 -12
v 2.5 6 -13
v 2.5 6 -12
v 2.5 5 -13
v 3.5 4.5 -6
v 2.5 5 -7
v 3 5 -6
v 3.5 4 -7
v 3.5 4 -10
v 2.5 5 -11
v 2.5 5 -10
v 3.5 4 -11
v 3.5 4 -13
v 2.5 5 -14
v 2.5 5 -13
v 3.5 4 -14
v 3.5 4 -7
v 2.5 5 -8
v 2.5 5 -7
v 3.5 4 -8
v 3.5 4 -9
v 2.5 5 -10
v 2.5 5 -9
v 3.5 4 -10
v -1.5 3.5 -18
v -2.5 4.5 -18
v -1.5 4.5 -18
v -2.5 3.5 -18
v 12.5 -2 -19
v 13.5 -2 -20
v 12.5 -2 -20
v 13.5 -2 -19
v 12.5 -2 -18
v 13.5 -2 -19
v 12.5 -2 -19
v 13.5 -2 -18
v 13.5 -2 -20
v 14.5 -2 -21
v 13.5 -2 -21
v 14.5 -2 -20
v 13.5 -2 -21
v 14.5 -2 -22
v 13.5 -2 -22
v 14.5 -2 -21
v 13.5 -2 -22
v 14.5 -2 -23
v 13.5 -2 -23
v 14.5 -2 -22
v 13.5 -2 -23
v 14.5 -2 -24
v 13.5 -2 -24
v 14.5 -2 -23
v 14.5 -2 -22
v 15.5 -2 -23
v 14.5 -2 -23
v 15.5 -2 -22
v 14.5 -2 -20
v 15.5 -2 -22
v 14.5 -2 -22
v 15.5 -2 -20
v 3.5 -1.5 -15
v 5.5 -1.5 -17
v 3.5 -2 -17.5
v 5.5 -2.5 -15
v 3.5 -1.5 -15
v 3.5 -0.5 -16
v 3.5 -0.5 -15
v 4 -1.5 -16
v 3.5 -0.5 -16
v 3 0.5 -17.5
v 3.5 0.5 -16
v 3.5 -2 -17.5
v 3.5 0.5 -15
v 3.5 1.5 -16
v 3.5 1.5 -15
v 3.5 0.5 -16
v 3.5 1.5 -16
v 3 2.5 -17.5
v 3.5 2.5 -16
v 3 1.5 -17.5
v 3.5 -0.5 -15
v 3.5 0.5 -16
v 3.5 0.5 -15
v 3.5 -0.5 -16
v 3.5 2.5 -15
v 3.5 3.5 -16
v 3.5 3.5 -15
v 3.5 2.5 -16
v 3.5 3.5 -16
v 3 4.5 -17.5
v 3.5 4.5 -16
v 3 3.5 -17.5
v 3.5 1.5 -15
v 3.5 2.5 -16
v 3.5 2.5 -15
v 3.5 1.5 -16
v 3.5 2.5 -16
v 3 3.5 -17.5
v 3.5 3.5 -16
v 3 2.5 -17.5
v 3.5 3.5 -15
v 3.5 4.5 -16
v 3.5 4.5 -15
v 3.5 3.5 -16
v 3.5 0.5 -16
v 3 1.5 -17.5
v 3.5 1.5 -16
v 3 0.5 -17.5
v 4 -1.5 -16
v 3.5 -2 -17.5
v 3.5 -0.5 -16
v 3.5 -2 -17.5
v 3.5 -2 -17.5
v 1.5 0.5 -18
v 3 0.5 -17.5
v 1.5 -0.5 -18
v 3 0.5 -17.5
v 1.5 1.5 -18
v 3 1.5 -17.5
v 1.5 0.5 -18
v 3 1.5 -17.5
v 1.5 2.5 -18
v 3 2.5 -17.5
v 1.5 1.5 -18
v 1.5 1.5 -18
v 0.5 2.5 -18
v 1.5 2.5 -18
v 0.5 1.5 -18
v -1.5 4.5 -18
v -2.5 5.5 -18
v -1.5 5.5 -18
v -2.5 4.5 -18
v -0.5 4.5 -18
v -1.5 5.5 -18
v -0.5 5.5 -18
v -1.5 4.5 -18
v 1.5 -0.5 -18
v 0.5 0.5 -18
v 1.5 0.5 -18
v 0.5 -0.5 -18
v 1.5 0.5 -18
v 0.5 1.5 -18
v 1.5 1.5 -18
v 0.5 0.5 -18
v 0.5 0.5 -18
v -0.5 1.5 -18
v 0.5 1.5 -18
v -0.5 0.5 -18
v 0.5 -0.5 -18
v -0.5 0.5 -18
v 0.5 0.5 -18
v -0.5 -0.5 -18
v -0.5 -0.5 -18
v -1.5 0.5 -18
v -0.5 0.5 -18
v -1.5 -0.5 -18
v -1.5 -0.5 -18
v -2.5 0.5 -18
v -1.5 0.5 -18
v -2.5 -0.5 -18
v -1.5 0.5 -18
v -2.5 1.5 -18
v -1.5 1.5 -18
v -2.5 0.5 -18
v -0.5 0.5 -18
v -1.5 1.5 -18
v -0.5 1.5 -18
v -1.5 0.5 -18
v -0.5 1.5 -18
v -1.5 2.5 -18
v -0.5 2.5 -18
v -1.5 1.5 -18
v -1.5 1.5 -18
v -2.5 2.5 -18
v -1.5 2.5 -18
v -2.5 1.5 -18
v -1.5 2.5 -18
v -2.5 3.5 -18
v -1.5 3.5 -18
v -2.5 2.5 -18
v -0.5 2.5 -18
v -1.5 3.5 -18
v -0.5 3.5 -18
v -1.5 2.5 -18
v 0.5 1.5 -18
v -0.5 2.5 -18
v 0.5 2.5 -18
v -0.5 1.5 -18
v 0.5 2.5 -18
v -0.5 3.5 -18
v 0.5 3.5 -18
v -0.5 2.5 -18
v -0.5 3.5 -18
v -1.5 4.5 -18
v -0.5 4.5 -18
v -1.5 3.5 -18
v 0.5 3.5 -18
v -0.5 4.5 -18
v 0.5 4.5 -18
v -0.5 3.5 -18
v 5.5 -1.5 -17
v 7.5 -2 -20
v 5.5 -2 -20
v 7.5 -2 -18
v 3.5 -2 -20
v 5.5 -2 -22
v 3.5 -2 -22
v 5.5 -2 -20
v -0.5 -2 -18
v 1.5 -2 -20
v -0.5 -2 -20
v 1.5 -2 -18
v 1.5 -2 -18
v 3.5 -2 -20
v 1.5 -2 -20
v 3.5 -1.5 -17
v 1.5 -2 -20
v 3.5 -2 -22
v 1.5 -2 -22
v 3.5 -2 -20
v 5.5 -2 -20
v 7.5 -2 -22
v 5.5 -2 -22
v 7.5 -2 -20
v 3.5 -1.5 -17
v 5.5 -2 -20
v 3.5 -2 -20
v 5.5 -1.5 -17
v 3.5 -2 -22
v 5.5 -2 -24
v 3.5 -2 -24
v 5.5 -2 -22
v -0.5 -2 -22
v 1.5 -2 -24
v -0.5 -2 -24
v 1.5 -2 -22
v -4.5 -2 -20
v -2.5 -2 -22
v -4.5 -2 -22
v -2.5 -2 -20
v -2.5 -2 -26
v -0.5 -2 -28
v -2.5 -2 -28
v -0.5 -2 -26
v 1.5 -2 -22
v 3.5 -2 -24
v 1.5 -2 -24
v 3.5 -2 -22
v -2.5 -2 -18
v -0.5 -2 -20
v -2.5 -2 -20
v -0.5 -2 -18
v -0.5 -2 -20
v 1.5 -2 -22
v -0.5 -2 -22
v 1.5 -2 -20
v -2.5 -2 -22
v -0.5 -2 -24
v -2.5 -2 -24
v -0.5 -2 -22
v 3.5 -2 -24
v 5.5 -2 -26
v 3.5 -2 -26
v 5.5 -2 -24
v 1.5 -2 -26
v 3.5 -2 -28
v 1.5 -2 -28
v 3.5 -2 -26
v -0.5 -2 -24
v 1.5 -2 -26
v -0.5 -2 -26
v 1.5 -2 -24
v 1.5 -2 -24
v 3.5 -2 -26
v 1.5 -2 -26
v 3.5 -2 -24
v -0.5 -2 -26
v 1.5 -2 -28
v -0.5 -2 -28
v 1.5 -2 -26
v 7.5 -2 -21
v 8.5 -2 -22
v 7.5 -2 -22
v 8.5 -2 -21
v 8.5 -2 -22
v 9.5 -2 -23
v 8.5 -2 -23
v 9.5 -2 -22
v 8.5 -2 -23
v 9.5 -2 -24
v 8.5 -2 -24
v 9.5 -2 -23
v 5.5 -2 -23
v 6.5 -2 -24
v 5.5 -2 -24
v 6.5 -2 -23
v 6.5 -2 -24
v 7.5 -2 -25
v 6.5 -2 -25
v 7.5 -2 -24
v 5.5 -2 -25
v 6.5 -2 -26
v 5.5 -2 -26
v 6.5 -2 -25
v -1.5 -2 -20
v -0.5 -2 -21
v -1.5 -2 -21
v -0.5 -2 -20
v -2.5 -2 -21
v -1.5 -2 -22
v -2.5 -2 -22
v -1.5 -2 -21
v -2.5 -2 -25
v -1.5 -2 -26
v -2.5 -2 -26
v -1.5 -2 -25
v -2.5 -2 -24
v -1.5 -2 -25
v -2.5 -2 -25
v -1.5 -2 -24
v -1.5 -2 -25
v -0.5 -2 -26
v -1.5 -2 -26
v -0.5 -2 -25
v 5.5 -2 -24
v 6.5 -2 -25
v 5.5 -2 -25
v 6.5 -2 -24
v -3.5 -2 -19
v -2.5 -2 -20
v -3.5 -2 -20
v -2.5 -2 -19
v -3.5 -2 -18
v -2.5 -2 -19
v -3.5 -2 -19
v -2.5 -2 -18
v -4.5 -2 -19
v -3.5 -2 -20
v -4.5 -2 -20
v -3.5 -2 -19
v 2 1 -2
v 3 2 -2
v 2 2 -2
v 3 1 -2
v -0.5 3 -4
v 0.5 4 -4
v -0.5 4 -4
v 0.5 3 -4
v 0.5 3 -4
v 1.5 4 -4
v 0.5 4 -4
v 1.5 3 -4
v -0.5 4 -4
v 0.5 5 -4
v -0.5 5 -4
v 0.5 4 -4
v 0.5 4 -4
v 1.5 5 -4
v 0.5 5 -4
v 1.5 4 -4
v -0.5 1 -4
v 0.5 2 -4
v -0.5 2 -4
v 0.5 1 -4
v 0.5 1 -4
v 1.5 2 -4
v 0.5 2 -4
v 1.5 1 -4
v 1.5 1 -4
v 2.5 2 -4
v 1.5 2 -4
v 2.5 1 -4
v 1.5 2 -4
v 2.5 3 -4
v 1.5 3 -4
v 2.5 2 -4
v 0.5 2 -4
v 1.5 3 -4
v 0.5 3 -4
v 1.5 2 -4
v -0.5 2 -4
v 0.5 3 -4
v -0.5 3 -4
v 0.5 2 -4
v 1.5 3 -4
v 2.5 4 -4
v 1.5 4 -4
v 2.5 3 -4
v 3.5 -2 -31
v 4.5 -2 -32
v 3.5 -2 -32
v 4.5 -2 -31
v 3.5 -2 -29
v 4.5 -2 -30
v 3.5 -2 -30
v 4.5 -2 -29
v -1.5 -2 -21
v -0.5 -2 -22
v -1.5 -2 -22
v -0.5 -2 -21
v -2.5 -2 -20
v -1.5 -2 -21
v -2.5 -2 -21
v -1.5 -2 -20
v 5.5 -2 -22
v 6.5 -2 -23
v 5.5 -2 -23
v 6.5 -2 -22
v 6.5 -2 -25
v 7.5 -2 -26
v 6.5 -2 -26
v 7.5 -2 -25
v 6.5 -2 -22
v 7.5 -2 -23
v 6.5 -2 -23
v 7.5 -2 -22
v 3.5 -2 -27
v 4.5 -2 -28
v 3.5 -2 -28
v 4.5 -2 -27
v -3.5 -2 -24
v -2.5 -2 -25
v -3.5 -2 -25
v -2.5 -2 -24
v -4.5 -2 -18
v -3.5 -2 -19
v -4.5 -2 -19
v -3.5 -2 -18
v -1.5 -2 -24
v -0.5 -2 -25
v -1.5 -2 -25
v -0.5 -2 -24
v 7.5 -2 -22
v 8.5 -2 -23
v 7.5 -2 -23
v 8.5 -2 -22
v 6.5 -2 -23
v 7.5 -2 -24
v 6.5 -2 -24
v 7.5 -2 -23
v 7.5 -2 -23
v 8.5 -2 -24
v 7.5 -2 -24
v 8.5 -2 -23
v -3.5 -2 -22
v -2.5 -2 -23
v -3.5 -2 -23
v -2.5 -2 -22
v -4.5 -2 -22
v -3.5 -2 -23
v -4.5 -2 -23
v -3.5 -2 -22
v -4.5 -2 -23
v -3.5 -2 -24
v -4.5 -2 -24
v -3.5 -2 -23
v -3.5 -2 -23
v -2.5 -2 -24
v -3.5 -2 -24
v -2.5 -2 -23
v -4.5 -2 -24
v -3.5 -2 -25
v -4.5 -2 -25
v -3.5 -2 -24
v -3.5 -2 -25
v -2.5 -2 -26
v -3.5 -2 -26
v -2.5 -2 -25
v -5.5 -2 -25
v -4.5 -2 -26
v -5.5 -2 -26
v -4.5 -2 -25
v -6.5 -2 -23
v -5.5 -2 -24
v -6.5 -2 -24
v -5.5 -2 -23
v -6.5 -2 -24
v -5.5 -2 -25
v -6.5 -2 -25
v -5.5 -2 -24
v -5.5 -2 -22
v -4.5 -2 -23
v -5.5 -2 -23
v -4.5 -2 -22
v -6.5 -2 -21
v -5.5 -2 -22
v -6.5 -2 -22
v -5.5 -2 -21
v -7.5 -2 -22
v -6.5 -2 -23
v -7.5 -2 -23
v -6.5 -2 -22
v -5.5 -2 -23
v -4.5 -2 -24
v -5.5 -2 -24
v -4.5 -2 -23
v -6.5 -2 -22
v -5.5 -2 -23
v -6.5 -2 -23
v -5.5 -2 -22
v -7.5 -2 -25
v -6.5 -2 -26
v -7.5 -2 -26
v -6.5 -2 -25
v -4.5 -2 -25
v -3.5 -2 -26
v -4.5 -2 -26
v -3.5 -2 -25
v -5.5 -2 -24
v -4.5 -2 -25
v -5.5 -2 -25
v -4.5 -2 -24
v -6.5 -2 -25
v -5.5 -2 -26
v -6.5 -2 -26
v -5.5 -2 -25
v -7.5 -2 -20
v -6.5 -2 -21
v -7.5 -2 -21
v -6.5 -2 -20
v -6.5 -2 -19
v -5.5 -2 -20
v -6.5 -2 -20
v -5.5 -2 -19
v -5.5 -2 -20
v -4.5 -2 -21
v -5.5 -2 -21
v -4.5 -2 -20
v -5.5 -2 -19
v -4.5 -2 -20
v -5.5 -2 -20
v -4.5 -2 -19
v -5.5 -2 -21
v -4.5 -2 -22
v -5.5 -2 -22
v -4.5 -2 -21
v -5.5 -2 -18
v -4.5 -2 -19
v -5.5 -2 -19
v -4.5 -2 -18
v -3.5 -2 -26
v -2.5 -2 -27
v -3.5 -2 -27
v -2.5 -2 -26
v -3.5 -2 -27
v -2.5 -2 -28
v -3.5 -2 -28
v -2.5 -2 -27
v -7.5 -2 -29
v -6.5 -2 -30
v -7.5 -2 -30
v -6.5 -2 -29
v -4.5 -2 -27
v -3.5 -2 -28
v -4.5 -2 -28
v -3.5 -2 -27
v -7.5 -2 -28
v -6.5 -2 -29
v -7.5 -2 -29
v -6.5 -2 -28
v -5.5 -2 -27
v -4.5 -2 -28
v -5.5 -2 -28
v -4.5 -2 -27
v -7.5 -2 -26
v -6.5 -2 -27
v -7.5 -2 -27
v -6.5 -2 -26
v -7.5 -2 -27
v -6.5 -2 -28
v -7.5 -2 -28
v -6.5 -2 -27
v -7.5 -2 -24
v -6.5 -2 -25
v -7.5 -2 -25
v -6.5 -2 -24
v -7.5 -2 -23
v -6.5 -2 -24
v -7.5 -2 -24
v -6.5 -2 -23
v -6.5 -2 -20
v -5.5 -2 -21
v -6.5 -2 -21
v -5.5 -2 -20
v -7.5 -2 -19
v -6.5 -2 -20
v -7.5 -2 -20
v -6.5 -2 -19
v -7.5 -2 -21
v -6.5 -2 -22
v -7.5 -2 -22
v -6.5 -2 -21
v -6.5 -2 -18
v -5.5 -2 -19
v -6.5 -2 -19
v -5.5 -2 -18
v -7.5 -2 -18
v -6.5 -2 -19
v -7.5 -2 -19
v -6.5 -2 -18
v -4.5 -2 -29
v -3.5 -2 -30
v -4.5 -2 -30
v -3.5 -2 -29
v -4.5 -2 -30
v -3.5 -2 -31
v -4.5 -2 -31
v -3.5 -2 -30
v -6.5 -2 -29
v -5.5 -2 -30
v -6.5 -2 -30
v -5.5 -2 -29
v -5.5 -2 -30
v -4.5 -2 -31
v -5.5 -2 -31
v -4.5 -2 -30
v -6.5 -2 -30
v -5.5 -2 -31
v -6.5 -2 -31
v -5.5 -2 -30
v -5.5 -2 -29
v -4.5 -2 -30
v -5.5 -2 -30
v -4.5 -2 -29
v -4.5 -2 -28
v -3.5 -2 -29
v -4.5 -2 -29
v -3.5 -2 -28
v -5.5 -2 -28
v -4.5 -2 -29
v -5.5 -2 -29
v -4.5 -2 -28
v -6.5 -2 -28
v -5.5 -2 -29
v -6.5 -2 -29
v -5.5 -2 -28
v -4.5 -2 -26
v -3.5 -2 -27
v -4.5 -2 -27
v -3.5 -2 -26
v -5.5 -2 -26
v -4.5 -2 -27
v -5.5 -2 -27
v -4.5 -2 -26
v -6.5 -2 -26
v -5.5 -2 -27
v -6.5 -2 -27
v -5.5 -2 -26
v -6.5 -2 -27
v -5.5 -2 -28
v -6.5 -2 -28
v -5.5 -2 -27
v -3.5 -2 -29
v -2.5 -2 -30
v -3.5 -2 -30
v -2.5 -2 -29
v -3.5 -2 -28
v -2.5 -2 -29
v -3.5 -2 -29
v -2.5 -2 -28
v -7.5 -2 -30
v -6.5 -2 -31
v -7.5 -2 -31
v -6.5 -2 -30
v -6.5 -2 -31
v -5.5 -2 -32
v -6.5 -2 -32
v -5.5 -2 -31
v -7.5 -2 -31
v -6.5 -2 -32
v -7.5 -2 -32
v -6.5 -2 -31
v -5.5 -2 -31
v -4.5 -2 -32
v -5.5 -2 -32
v -4.5 -2 -31
v -4.5 -2 -31
v -3.5 -2 -32
v -4.5 -2 -32
v -3.5 -2 -31
v -3.5 -2 -30
v -2.5 -2 -31
v -3.5 -2 -31
v -2.5 -2 -30
v -3.5 -2 -31
v -2.5 -2 -32
v -3.5 -2 -32
v -2.5 -2 -31
v -1.5 -2 -29
v -0.5 -2 -30
v -1.5 -2 -30
v -0.5 -2 -29
v -2.5 -2 -28
v -1.5 -2 -29
v -2.5 -2 -29
v -1.5 -2 -28
v -1.5 -2 -28
v -0.5 -2 -29
v -1.5 -2 -29
v -0.5 -2 -28
v -0.5 -2 -28
v 0.5 -2 -29
v -0.5 -2 -29
v 0.5 -2 -28
v 0.5 -2 -28
v 1.5 -2 -29
v 0.5 -2 -29
v 1.5 -2 -28
v 1.5 -2 -28
v 2.5 -2 -29
v 1.5 -2 -29
v 2.5 -2 -28
v 2.5 -2 -28
v 3.5 -2 -29
v 2.5 -2 -29
v 3.5 -2 -28
v -2.5 -2 -29
v -1.5 -2 -30
v -2.5 -2 -30
v -1.5 -2 -29
v 0.5 -2 -30
v 1.5 -2 -31
v 0.5 -2 -31
v 1.5 -2 -30
v -1.5 -2 -31
v -0.5 -2 -32
v -1.5 -2 -32
v -0.5 -2 -31
v 3.5 -2 -30
v 4.5 -2 -31
v 3.5 -2 -31
v 4.5 -2 -30
v 2.5 -2 -31
v 3.5 -2 -32
v 2.5 -2 -32
v 3.5 -2 -31
v -1.5 -2 -30
v -0.5 -2 -31
v -1.5 -2 -31
v -0.5 -2 -30
v -0.5 -2 -31
v 0.5 -2 -32
v -0.5 -2 -32
v 0.5 -2 -31
v 1.5 -2 -29
v 2.5 -2 -30
v 1.5 -2 -30
v 2.5 -2 -29
v -0.5 -2 -29
v 0.5 -2 -30
v -0.5 -2 -30
v 0.5 -2 -29
v -2.5 -2 -31
v -1.5 -2 -32
v -2.5 -2 -32
v -1.5 -2 -31
v 3.5 -2 -28
v 4.5 -2 -29
v 3.5 -2 -29
v 4.5 -2 -28
v 0.5 -2 -29
v 1.5 -2 -30
v 0.5 -2 -30
v 1.5 -2 -29
v 1.5 -2 -30
v 2.5 -2 -31
v 1.5 -2 -31
v 2.5 -2 -30
v -0.5 -2 -30
v 0.5 -2 -31
v -0.5 -2 -31
v 0.5 -2 -30
v -2.5 -2 -30
v -1.5 -2 -31
v -2.5 -2 -31
v -1.5 -2 -30
v 1.5 -2 -31
v 2.5 -2 -32
v 1.5 -2 -32
v 2.5 -2 -31
v 0.5 -2 -31
v 1.5 -2 -32
v 0.5 -2 -32
v 1.5 -2 -31
v 2.5 -2 -29
v 3.5 -2 -30
v 2.5 -2 -30
v 3.5 -2 -29
v 2.5 -2 -30
v 3.5 -2 -31
v 2.5 -2 -31
v 3.5 -2 -30
v 1 -1 -1
v 2 0 -1
v 1 0 -1
v 2 -1 -1
v 0 -1 -1
v 1 0 -1
v 0 0 -1
v 1 -1 -1
v 1 0 0
v 2 0 -1
v 1 0 -1
v 2 0 0
v 1 -1 -1
v 2 -1 0
v 1 -1 0
v 2 -1 -1
v 2 -1 -1
v 1 0 -1
v 2 0 -1
v 1 -1 -1
v 2 -1 0
v 2 0 -1
v 2 0 0
v 2 -1 -1
v 1 -1 0
v 2 0 0
v 1 0 0
v 2 -1 0
v 1 -1 0
v 2 -1 -1
v 1 -1 -1
v 2 -1 0
v 0 -1 -1
v 1 -1 0
v 0 -1 0
v 1 -1 -1
v 1 -1 0
v 1 0 -1
v 1 0 0
v 1 -1 -1
v 1 -1 -1
v 0 0 -1
v 1 0 -1
v 0 -1 -1
v 0 -1 0
v 1 -1 -1
v 0 -1 -1
v 1 -1 0
v 0 -1 -1
v 0 0 0
v 0 0 -1
v 0 -1 0
v 0 -1 0
v 0 0 -1
v 0 0 0
v 0 -1 -1
v 0 0 0
v 1 0 -1
v 0 0 -1
v 1 0 0
v 0 -1 0
v 1 0 0
v 0 0 0
v 1 -1 0
vt 0.8333333134651184 0.5
vt 1 1
vt 0.8333333134651184 1
vt 1 0.5
vt 0 0.5
vt 0.03333333507180214 1
vt 0 1
vt 0.03333333507180214 0.5
vt 0.06666667014360428 1
vt 0.06666667014360428 0.5
vt 0.7666666507720947 0.5
vt 0.800000011920929 1
vt 0.7666666507720947 1
vt 0.800000011920929 0.5
vt 0 0
vt 0.03333333507180214 0
vt 0.20000000298023224 0.5
vt 0.23333333432674408 0
vt 0.23333333432674408 0.5
vt 0.20000000298023224 0
vt 0.30000001192092896 0.5
vt 0.2666666805744171 1
vt 0.2666666805744171 0.5
vt 0.30000001192092896 1
vt 0.30000001192092896 0
vt 0.3333333432674408 0.5
vt 0.3333333432674408 0
vt 0.10000000149011612 0
vt 0.13333334028720856 0.5
vt 0.10000000149011612 0.5
vt 0.13333334028720856 0
vt 0.13333334028720856 1
vt 0.1666666716337204 0.5
vt 0.1666666716337204 1
vt 0.06666667014360428 0
vt 0.1666666716337204 0
vt 0.23333333432674408 1
vt 0.20000000298023224 1
vt 0.2666666805744171 0
vt 0.5333333611488342 0.5
vt 0.5 0
vt 0.5333333611488342 0
vt 0.5 0.5
vt 0.5 1
vt 0.46666666865348816 0.5
vt 0.46666666865348816 1
vt 0.4333333373069763 0.5
vt 0.4000000059604645 0
vt 0.4333333373069763 0
vt 0.4000000059604645 0.5
vt 0.4333333373069763 1
vt 0.46666666865348816 0
vt 0.36666667461395264 1
vt 0.36666667461395264 0.5
vt 0.3333333432674408 1
vt 0.5333333611488342 1
vt 0.8333333134651184 0
vt 0.8666666746139526 0.5
vt 0.8666666746139526 0
vt 0.7333333492279053 0
vt 0.7333333492279053 0.5
vt 0.7666666507720947 0
vt 0.7333333492279053 1
vt 0.699999988079071 0.5
vt 0.699999988079071 1
vt 0.6666666865348816 0.5
vt 0.6333333253860474 0
vt 0.6666666865348816 0
vt 0.6333333253860474 0.5
vt 0.9666666388511658 0.5
vt 1 0
vt 0.9666666388511658 0
vt 0.800000011920929 0
vt 0.6666666865348816 1
vt 0.699999988079071 0
vt 0.8999999761581421 0
vt 0.9333333373069763 0.5
vt 0.8999999761581421 0.5
vt 0.9333333373069763 0
vt 0.9333333373069763 1
vt 0.8999999761581421 1
vt 0.10000000149011612 1
vt 0.5666666626930237 0
vt 0.5666666626930237 0.5
vt 0.6000000238418579 0.5
vt 0.5666666626930237 1
vt 0.6000000238418579 1
vt 0.6000000238418579 0
vt 0.36666667461395264 0
vt 0.4000000059604645 1
vt 0.6333333253860474 1
vt 0.8666666746139526 1
vt 0.9666666388511658 1
vn 0 0 1
vn 0 1 0
vn 0.40824829 0.81649658 0.40824829
vn 0.4472136 0.89442719 0
vn 0 0.89442719 -0.4472136
vn 0 0.89442719 0.4472136
vn 0.70710678 0.70710678 0
vn 0.57735027 0.57735027 0.57735027
vn -0.4472136 0.89442719 0
vn -0.15617376 0.93704257 0.31234752
vn 0.21821789 0.87287156 0.43643578
vn -0.43643578 0.87287156 0.21821789
vn 0.37139068 0.74278135 0.55708601
vn 0.87287156 0.43643578 0.21821789
vn 0.89442719 0.4472136 0
vn 0.58834841 0.78446454 0.19611614
vn 0.34188173 0.91168461 0.22792115
vn 0 0 -1
vn 0 0.70710678 -0.70710678
vn 0 0.24253563 -0.9701425
vn 0.84270097 0.48154341 -0.24077171
vn -0.16222142 -0.97332853 0.16222142
vn -0.4472136 0 -0.89442719
vn 0.92847669 0.37139068 0
vn 0.07949286 0.39746432 -0.91416793
vn 0.07407407 0.37037037 0.92592593
vn 0 0.4472136 0.89442719
vn 0 0.4472136 -0.89442719
vn 0.9701425 -0.24253563 0
vn 0.69631062 -0.17407766 0.69631062
vn -0.69631062 0.17407766 -0.69631062
vn 0.66666667 -0.66666667 -0.33333333
vn 1 0 0
vn 0.82416338 0.54944226 -0.13736056
vn 0.89442719 0 -0.4472136
vn 0 0.70710678 0.70710678
vn 0.72760688 0.48507125 0.48507125
vn 0.70710678 0 0.70710678
vn 0.80178373 0.53452248 -0.26726124
vn 0.70710678 0 -0.70710678
vn 0.46852129 0.62469505 0.62469505
vn 0.51449576 0.68599434 0.51449576
vn 0.83205029 0.5547002 0
vn 0 0 0
vn 0.31622777 0 -0.9486833
vn 0.24253563 0 -0.9701425
vn 0.40824829 0.81649658 -0.40824829
vn -0.26726124 -0.53452248 -0.80178373
vn 0.66666667 0.66666667 -0.33333333
vn -0.19245009 0.96225045 -0.19245009
vn 0.81649658 0.40824829 0.40824829
vn 0.9486833 0 -0.31622777
vn 0.96225045 0.19245009 -0.19245009
vn 0.81649658 0.40824829 -0.40824829
vn 0.3155972 0.06311944 -0.9467916
vn 0 0.98639392 -0.16439899
vn 0.24253563 0.9701425 0
vn -0.16222142 0.97332853 -0.16222142
vn 0 -1 0
vn -1 0 0
g Scene
usemtl pxArt (1)
f 1/1/1 3/2/1 2/3/1
f 1/1/1 4/4/1 3/2/1
f 5/1/1 6/2/1 7/3/1
f 5/1/1 8/4/1 6/2/1
usemtl TileSamples-Sheet
f 9/5/2 10/6/2 11/7/2
f 9/5/2 12/8/2 10/6/2
f 13/8/2 14/9/2 15/6/2
f 13/8/2 16/10/2 14/9/2
f 17/11/2 18/12/2 19/13/2
f 17/11/2 20/14/2 18/12/2
f 21/15/2 22/8/2 23/5/2
f 21/15/2 24/16/2 22/8/2
f 25/15/3 26/8/3 27/5/3
f 25/15/2 28/16/2 26/8/2
f 29/17/2 30/18/2 31/19/2
f 29/17/2 32/20/2 30/18/2
f 33/21/2 34/22/2 35/23/2
f 33/21/2 36/24/2 34/22/2
f 37/25/2 38/26/2 39/21/2
f 37/25/2 40/27/2 38/26/2
f 41/28/4 42/29/4 43/30/4
f 41/28/5 44/31/5 42/29/5
f 45/28/2 46/29/2 47/30/2
f 45/28/2 48/31/2 46/29/2
f 49/32/5 50/33/5 51/34/5
f 49/32/4 52/29/4 50/33/4
f 53/8/2 54/7/2 55/5/2
f 53/8/2 56/6/2 54/7/2
f 57/16/2 58/10/2 59/8/2
f 57/16/3 60/35/3 58/10/3
f 61/6/4 62/5/4 63/8/4
f 61/6/4 64/7/4 62/5/4
f 65/17/6 66/36/6 67/20/6
f 65/17/6 68/33/6 66/36/6
f 69/29/2 70/34/2 71/32/2
f 69/29/3 72/33/3 70/34/3
f 73/17/2 74/37/2 75/38/2
f 73/17/2 76/19/2 74/37/2
f 77/18/3 78/23/3 79/19/3
f 77/18/2 80/39/2 78/23/2
f 81/30/5 82/31/5 83/29/5
f 81/30/4 84/28/4 82/31/4
f 85/40/7 86/41/7 87/42/7
f 85/40/7 88/43/7 86/41/7
f 89/44/7 90/45/7 91/43/7
f 89/44/7 92/46/7 90/45/7
f 93/40/2 94/41/2 95/42/2
f 93/40/8 96/43/8 94/41/8
f 97/47/3 98/48/3 99/49/3
f 97/47/2 100/50/2 98/48/2
f 101/45/2 102/51/2 103/47/2
f 101/45/3 104/46/3 102/51/3
f 105/45/9 106/51/9 107/47/9
f 105/45/10 108/46/10 106/51/10
f 109/41/7 110/45/7 111/52/7
f 109/41/7 112/43/7 110/45/7
f 113/43/7 114/52/7 115/41/7
f 113/43/7 116/45/7 114/52/7
f 117/45/11 118/51/11 119/47/11
f 117/45/11 120/46/11 118/51/11
f 121/45/12 122/49/12 123/52/12
f 121/45/8 124/47/8 122/49/8
f 125/42/6 126/43/6 127/41/6
f 125/42/13 128/40/13 126/43/13
f 129/53/13 130/26/13 131/54/13
f 129/53/6 132/55/6 130/26/6
f 133/43/2 134/52/2 135/41/2
f 133/43/2 136/45/2 134/52/2
f 137/41/4 138/45/4 139/52/4
f 137/41/4 140/43/4 138/45/4
f 141/43/2 142/56/2 143/44/2
f 141/43/2 144/40/2 142/56/2
f 145/42/4 146/43/4 147/41/4
f 145/42/4 148/40/4 146/43/4
f 149/12/4 150/1/4 151/3/4
f 149/12/4 152/14/4 150/1/4
f 153/57/4 154/58/4 155/1/4
f 153/57/4 156/59/4 154/58/4
f 157/57/14 158/58/14 159/1/14
f 157/57/15 160/59/15 158/58/15
f 161/60/16 162/11/16 163/61/16
f 161/60/2 164/62/2 162/11/2
f 165/63/2 166/64/2 167/61/2
f 165/63/17 168/65/17 166/64/17
f 169/66/2 170/67/2 171/68/2
f 169/66/2 172/69/2 170/67/2
f 173/67/2 174/66/2 175/69/2
f 173/67/2 176/68/2 174/66/2
f 177/43/18 178/52/18 179/41/18
f 177/43/18 180/45/18 178/52/18
f 181/57/2 182/58/2 183/1/2
f 181/57/2 184/59/2 182/58/2
f 185/1/2 186/59/2 187/58/2
f 185/1/2 188/57/2 186/59/2
f 189/11/2 190/60/2 191/62/2
f 189/11/2 192/61/2 190/60/2
f 193/70/2 194/71/2 195/4/2
f 193/70/2 196/72/2 194/71/2
f 197/41/18 198/40/18 199/43/18
f 197/41/18 200/42/18 198/40/18
f 201/4/2 202/72/2 203/71/2
f 201/4/2 204/70/2 202/72/2
f 205/1/2 206/73/2 207/57/2
f 205/1/2 208/14/2 206/73/2
f 209/65/2 210/66/2 211/64/2
f 209/65/2 212/74/2 210/66/2
f 213/75/2 214/61/2 215/64/2
f 213/75/2 216/60/2 214/61/2
f 217/57/2 218/58/2 219/1/2
f 217/57/2 220/59/2 218/58/2
f 221/76/2 222/77/2 223/78/2
f 221/76/2 224/79/2 222/77/2
f 225/78/2 226/80/2 227/81/2
f 225/78/2 228/77/2 226/80/2
f 229/12/2 230/1/2 231/3/2
f 229/12/2 232/14/2 230/1/2
f 233/57/2 234/58/2 235/1/2
f 233/57/2 236/59/2 234/58/2
f 237/19/2 238/20/2 239/18/2
f 237/19/2 240/17/2 238/20/2
f 241/16/2 242/10/2 243/8/2
f 241/16/2 244/35/2 242/10/2
f 245/5/2 246/16/2 247/8/2
f 245/5/2 248/15/2 246/16/2
f 249/6/2 250/10/2 251/9/2
f 249/6/2 252/8/2 250/10/2
f 253/28/2 254/10/2 255/35/2
f 253/28/2 256/30/2 254/10/2
f 257/35/2 258/30/2 259/10/2
f 257/35/2 260/28/2 258/30/2
f 261/35/2 262/30/2 263/10/2
f 261/35/2 264/28/2 262/30/2
f 265/82/2 266/29/2 267/32/2
f 265/82/2 268/30/2 266/29/2
f 269/29/2 270/36/2 271/33/2
f 269/29/2 272/31/2 270/36/2
f 273/29/2 274/36/2 275/33/2
f 273/29/2 276/31/2 274/36/2
f 277/29/2 278/36/2 279/33/2
f 277/29/2 280/31/2 278/36/2
f 281/29/2 282/36/2 283/33/2
f 281/29/2 284/31/2 282/36/2
f 285/29/2 286/36/2 287/33/2
f 285/29/2 288/31/2 286/36/2
f 289/23/2 290/18/2 291/39/2
f 289/23/2 292/19/2 290/18/2
f 293/38/2 294/19/2 295/37/2
f 293/38/2 296/17/2 294/19/2
f 297/18/2 298/23/2 299/19/2
f 297/18/2 300/39/2 298/23/2
f 301/25/2 302/26/2 303/21/2
f 301/25/2 304/27/2 302/26/2
f 305/21/2 306/27/2 307/26/2
f 305/21/2 308/25/2 306/27/2
f 309/26/2 310/25/2 311/27/2
f 309/26/2 312/21/2 310/25/2
f 313/17/2 314/37/2 315/38/2
f 313/17/2 316/19/2 314/37/2
f 317/38/2 318/19/2 319/37/2
f 317/38/2 320/17/2 318/19/2
f 321/17/2 322/36/2 323/20/2
f 321/17/2 324/33/2 322/36/2
f 325/17/2 326/36/2 327/20/2
f 325/17/2 328/33/2 326/36/2
f 329/29/2 330/82/2 331/30/2
f 329/29/2 332/32/2 330/82/2
f 333/16/2 334/10/2 335/8/2
f 333/16/2 336/35/2 334/10/2
f 337/8/4 338/35/4 339/10/4
f 337/8/5 340/16/5 338/35/5
f 341/30/5 342/9/5 343/10/5
f 341/30/5 344/82/5 342/9/5
f 345/83/19 346/40/19 347/42/19
f 345/83/19 348/84/19 346/40/19
f 349/85/19 350/86/19 351/84/19
f 349/85/19 352/87/19 350/86/19
f 353/83/19 354/85/19 355/84/19
f 353/83/19 356/88/19 354/85/19
f 357/86/19 358/40/19 359/84/19
f 357/86/19 360/56/19 358/40/19
f 361/83/19 362/40/19 363/42/19
f 361/83/19 364/84/19 362/40/19
f 365/83/18 366/40/18 367/42/18
f 365/83/18 368/84/18 366/40/18
f 369/85/18 370/86/18 371/84/18
f 369/85/18 372/87/18 370/86/18
f 373/84/18 374/87/18 375/86/18
f 373/84/18 376/85/18 374/87/18
f 377/40/18 378/83/18 379/84/18
f 377/40/18 380/42/18 378/83/18
f 381/84/18 382/42/18 383/83/18
f 381/84/18 384/40/18 382/42/18
f 385/85/18 386/83/18 387/88/18
f 385/85/18 388/84/18 386/83/18
f 389/86/18 390/40/18 391/84/18
f 389/86/18 392/56/18 390/40/18
f 393/84/18 394/56/18 395/40/18
f 393/84/18 396/86/18 394/56/18
f 397/85/18 398/86/18 399/84/18
f 397/85/18 400/87/18 398/86/18
f 401/86/18 402/85/18 403/87/18
f 401/86/18 404/84/18 402/85/18
f 405/84/18 406/42/18 407/83/18
f 405/84/18 408/40/18 406/42/18
f 409/83/18 410/40/18 411/42/18
f 409/83/18 412/84/18 410/40/18
f 413/88/18 414/84/18 415/83/18
f 413/88/18 416/85/18 414/84/18
f 417/84/18 418/88/18 419/85/18
f 417/84/18 420/83/18 418/88/18
f 421/86/18 422/40/18 423/84/18
f 421/86/18 424/56/18 422/40/18
f 425/86/1 426/40/1 427/84/1
f 425/86/1 428/56/1 426/40/1
f 429/84/1 430/56/1 431/40/1
f 429/84/1 432/86/1 430/56/1
f 433/83/1 434/85/1 435/84/1
f 433/83/1 436/88/1 434/85/1
f 437/83/1 438/85/1 439/84/1
f 437/83/1 440/88/1 438/85/1
f 441/84/1 442/88/1 443/85/1
f 441/84/1 444/83/1 442/88/1
f 445/85/1 446/83/1 447/88/1
f 445/85/1 448/84/1 446/83/1
f 449/84/1 450/42/1 451/83/1
f 449/84/1 452/40/1 450/42/1
f 453/83/1 454/40/1 455/42/1
f 453/83/1 456/84/1 454/40/1
f 457/83/1 458/40/1 459/42/1
f 457/83/1 460/84/1 458/40/1
f 461/42/1 462/84/1 463/40/1
f 461/42/1 464/83/1 462/84/1
f 465/86/1 466/85/1 467/87/1
f 465/86/1 468/84/1 466/85/1
f 469/87/1 470/84/1 471/85/1
f 469/87/1 472/86/1 470/84/1
f 473/83/1 474/40/1 475/42/1
f 473/83/1 476/84/1 474/40/1
f 477/42/1 478/84/1 479/40/1
f 477/42/1 480/83/1 478/84/1
f 481/86/1 482/85/1 483/87/1
f 481/86/1 484/84/1 482/85/1
f 485/86/1 486/85/1 487/87/1
f 485/86/1 488/84/1 486/85/1
f 489/83/1 490/85/1 491/84/1
f 489/83/1 492/88/1 490/85/1
f 493/86/1 494/85/1 495/87/1
f 493/86/1 496/84/1 494/85/1
f 497/56/1 498/84/1 499/86/1
f 497/56/1 500/40/1 498/84/1
f 501/40/1 502/83/1 503/84/1
f 501/40/1 504/42/1 502/83/1
f 505/56/1 506/84/1 507/86/1
f 505/56/1 508/40/1 506/84/1
f 509/84/1 510/88/1 511/85/1
f 509/84/1 512/83/1 510/88/1
f 513/56/1 514/84/1 515/86/1
f 513/56/1 516/40/1 514/84/1
f 517/40/1 518/83/1 519/84/1
f 517/40/1 520/42/1 518/83/1
f 521/56/1 522/84/1 523/86/1
f 521/56/1 524/40/1 522/84/1
f 525/83/1 526/40/1 527/42/1
f 525/83/1 528/84/1 526/40/1
f 529/88/1 530/84/1 531/83/1
f 529/88/1 532/85/1 530/84/1
f 533/84/1 534/42/1 535/83/1
f 533/84/1 536/40/1 534/42/1
f 537/40/1 538/83/1 539/84/1
f 537/40/1 540/42/1 538/83/1
f 541/56/1 542/84/1 543/86/1
f 541/56/1 544/40/1 542/84/1
f 545/88/1 546/84/1 547/83/1
f 545/88/1 548/85/1 546/84/1
f 549/56/1 550/84/1 551/86/1
f 549/56/1 552/40/1 550/84/1
f 553/42/1 554/84/1 555/40/1
f 553/42/1 556/83/1 554/84/1
f 557/88/1 558/84/1 559/83/1
f 557/88/1 560/85/1 558/84/1
f 561/84/1 562/88/1 563/85/1
f 561/84/1 564/83/1 562/88/1
f 565/56/18 566/84/18 567/86/18
f 565/56/18 568/40/18 566/84/18
f 569/86/18 570/40/18 571/84/18
f 569/86/18 572/56/18 570/40/18
f 573/84/18 574/56/18 575/40/18
f 573/84/18 576/86/18 574/56/18
f 577/40/18 578/86/18 579/56/18
f 577/40/18 580/84/18 578/86/18
f 581/56/18 582/84/18 583/86/18
f 581/56/18 584/40/18 582/84/18
f 585/56/18 586/84/18 587/86/18
f 585/56/18 588/40/18 586/84/18
f 589/56/18 590/84/18 591/86/18
f 589/56/18 592/40/18 590/84/18
f 593/40/18 594/86/18 595/56/18
f 593/40/18 596/84/18 594/86/18
f 597/40/18 598/83/18 599/84/18
f 597/40/18 600/42/18 598/83/18
f 601/84/18 602/42/18 603/83/18
f 601/84/18 604/40/18 602/42/18
f 605/83/18 606/40/18 607/42/18
f 605/83/18 608/84/18 606/40/18
f 609/42/18 610/84/18 611/40/18
f 609/42/18 612/83/18 610/84/18
f 613/40/18 614/83/18 615/84/18
f 613/40/18 616/42/18 614/83/18
f 617/84/18 618/42/18 619/83/18
f 617/84/18 620/40/18 618/42/18
f 621/84/18 622/56/18 623/40/18
f 621/84/18 624/86/18 622/56/18
f 625/40/18 626/86/18 627/56/18
f 625/40/18 628/84/18 626/86/18
f 629/86/18 630/40/18 631/84/18
f 629/86/18 632/56/18 630/40/18
f 633/84/18 634/56/18 635/40/18
f 633/84/18 636/86/18 634/56/18
f 637/86/18 638/40/18 639/84/18
f 637/86/18 640/56/18 638/40/18
f 641/87/18 642/84/18 643/85/18
f 641/87/18 644/86/18 642/84/18
f 645/45/2 646/49/2 647/52/2
f 645/45/2 648/47/2 646/49/2
f 649/45/2 650/51/2 651/47/2
f 649/45/2 652/46/2 650/51/2
f 653/50/2 654/49/2 655/47/2
f 653/50/2 656/48/2 654/49/2
f 657/47/2 658/48/2 659/49/2
f 657/47/2 660/50/2 658/48/2
f 661/40/2 662/41/2 663/42/2
f 661/40/2 664/43/2 662/41/2
f 665/48/2 666/54/2 667/89/2
f 665/48/2 668/50/2 666/54/2
f 669/54/2 670/48/2 671/50/2
f 669/54/2 672/89/2 670/48/2
f 673/54/2 674/55/2 675/26/2
f 673/54/2 676/53/2 674/55/2
f 677/54/2 678/48/2 679/50/2
f 677/54/2 680/89/2 678/48/2
f 681/50/2 682/49/2 683/47/2
f 681/50/2 684/48/2 682/49/2
f 685/90/2 686/47/2 687/51/2
f 685/90/2 688/50/2 686/47/2
f 689/47/2 690/90/2 691/50/2
f 689/47/2 692/51/2 690/90/2
f 693/39/2 694/21/2 695/23/2
f 693/39/2 696/25/2 694/21/2
f 697/23/2 698/25/2 699/21/2
f 697/23/2 700/39/2 698/25/2
f 701/25/2 702/23/2 703/39/2
f 701/25/2 704/21/2 702/23/2
f 705/39/2 706/21/2 707/23/2
f 705/39/2 708/25/2 706/21/2
f 709/37/2 710/23/2 711/22/2
f 709/37/2 712/19/2 710/23/2
f 713/23/2 714/37/2 715/19/2
f 713/23/2 716/22/2 714/37/2
f 717/5/2 718/16/2 719/8/2
f 717/5/2 720/15/2 718/16/2
f 721/15/2 722/8/2 723/5/2
f 721/15/2 724/16/2 722/8/2
f 725/22/2 726/19/2 727/23/2
f 725/22/2 728/37/2 726/19/2
f 729/18/2 730/17/2 731/20/2
f 729/18/2 732/19/2 730/17/2
f 733/36/2 734/17/2 735/33/2
f 733/36/2 736/20/2 734/17/2
f 737/36/2 738/17/2 739/33/2
f 737/36/2 740/20/2 738/17/2
f 741/30/2 742/31/2 743/29/2
f 741/30/2 744/28/2 742/31/2
f 745/8/2 746/7/2 747/5/2
f 745/8/2 748/6/2 746/7/2
f 749/43/2 750/52/2 751/41/2
f 749/43/2 752/45/2 750/52/2
f 753/49/2 754/50/2 755/48/2
f 753/49/2 756/47/2 754/50/2
f 757/49/5 758/50/5 759/48/5
f 757/49/5 760/47/5 758/50/5
f 761/48/5 762/47/5 763/50/5
f 761/48/5 764/49/5 762/47/5
f 765/90/5 766/54/5 767/50/5
f 765/90/5 768/53/5 766/54/5
f 769/54/5 770/90/5 771/53/5
f 769/54/5 772/50/5 770/90/5
f 773/89/5 774/26/5 775/27/5
f 773/89/5 776/54/5 774/26/5
f 777/21/5 778/27/5 779/26/5
f 777/21/5 780/25/5 778/27/5
f 781/23/5 782/37/5 783/19/5
f 781/23/5 784/22/5 782/37/5
f 785/42/18 786/43/18 787/41/18
f 785/42/18 788/40/18 786/43/18
f 789/40/18 790/41/18 791/42/18
f 789/40/18 792/43/18 790/41/18
f 793/84/18 794/42/18 795/83/18
f 793/84/18 796/40/18 794/42/18
f 797/85/18 798/86/18 799/84/18
f 797/85/18 800/87/18 798/86/18
f 801/84/18 802/87/18 803/86/18
f 801/84/18 804/85/18 802/87/18
f 805/86/18 806/85/18 807/87/18
f 805/86/18 808/84/18 806/85/18
f 809/86/18 810/40/18 811/84/18
f 809/86/18 812/56/18 810/40/18
f 813/84/18 814/56/18 815/40/18
f 813/84/18 816/86/18 814/56/18
f 817/53/18 818/26/18 819/54/18
f 817/53/18 820/55/18 818/26/18
f 821/43/18 822/42/18 823/40/18
f 821/43/18 824/41/18 822/42/18
f 825/78/2 826/59/2 827/76/2
f 825/78/2 828/58/2 826/59/2
f 829/62/2 830/61/2 831/60/2
f 829/62/2 832/11/2 830/61/2
f 833/69/5 834/87/5 835/85/5
f 833/69/4 836/91/4 834/87/4
f 837/85/2 838/91/2 839/87/2
f 837/85/2 840/69/2 838/91/2
f 841/64/2 842/60/2 843/61/2
f 841/64/2 844/75/2 842/60/2
f 845/64/2 846/63/2 847/65/2
f 845/64/2 848/61/2 846/63/2
f 849/65/2 850/61/2 851/63/2
f 849/65/2 852/64/2 850/61/2
f 853/85/20 854/67/20 855/69/20
f 853/85/21 856/88/21 854/67/21
f 857/3/2 858/76/2 859/81/2
f 857/3/2 860/57/2 858/76/2
f 861/81/2 862/57/2 863/76/2
f 861/81/2 864/3/2 862/57/2
f 865/81/2 866/57/2 867/76/2
f 865/81/2 868/3/2 866/57/2
f 869/76/2 870/3/2 871/57/2
f 869/76/2 872/81/2 870/3/2
f 873/57/2 874/81/2 875/3/2
f 873/57/2 876/76/2 874/81/2
f 877/13/2 878/57/2 879/3/2
f 877/13/2 880/62/2 878/57/2
f 881/3/2 882/62/2 883/57/2
f 881/3/2 884/13/2 882/62/2
f 885/62/2 886/3/2 887/13/2
f 885/62/2 888/57/2 886/3/2
f 889/62/2 890/3/2 891/13/2
f 889/62/2 892/57/2 890/3/2
f 893/62/2 894/3/2 895/13/2
f 893/62/2 896/57/2 894/3/2
f 897/13/2 898/75/2 899/62/2
f 897/13/2 900/65/2 898/75/2
f 901/75/2 902/13/2 903/65/2
f 901/75/2 904/62/2 902/13/2
f 905/65/2 906/62/2 907/13/2
f 905/65/2 908/75/2 906/62/2
f 909/59/2 910/80/2 911/92/2
f 909/59/2 912/79/2 910/80/2
f 913/92/2 914/79/2 915/80/2
f 913/92/2 916/59/2 914/79/2
f 917/59/2 918/80/2 919/92/2
f 917/59/2 920/79/2 918/80/2
f 921/80/6 922/59/6 923/79/6
f 921/80/6 924/92/6 922/59/6
f 925/76/3 926/3/3 927/57/3
f 925/76/2 928/81/2 926/3/2
f 929/73/22 930/11/22 931/62/22
f 929/73/5 932/14/5 930/11/5
f 933/57/5 934/58/5 935/1/5
f 933/57/4 936/59/4 934/58/4
f 937/79/2 938/78/2 939/76/2
f 937/79/3 940/77/3 938/78/3
f 941/77/6 942/81/6 943/78/6
f 941/77/6 944/80/6 942/81/6
f 945/72/6 946/4/6 947/70/6
f 945/72/6 948/71/6 946/4/6
f 949/81/2 950/72/2 951/93/2
f 949/81/2 952/76/2 950/72/2
f 953/93/2 954/76/2 955/72/2
f 953/93/2 956/81/2 954/76/2
f 957/66/2 958/75/2 959/64/2
f 957/66/2 960/68/2 958/75/2
f 961/75/2 962/13/2 963/65/2
f 961/75/2 964/62/2 962/13/2
f 965/69/2 966/68/2 967/66/2
f 965/69/2 968/67/2 966/68/2
f 969/91/2 970/85/2 971/69/2
f 969/91/2 972/87/2 970/85/2
f 973/69/2 974/87/2 975/85/2
f 973/69/2 976/91/2 974/87/2
f 977/67/2 978/65/2 979/91/2
f 977/67/2 980/75/2 978/65/2
f 981/62/2 982/65/2 983/75/2
f 981/62/2 984/13/2 982/65/2
f 985/62/2 986/1/2 987/11/2
f 985/62/2 988/57/2 986/1/2
f 989/64/2 990/68/2 991/75/2
f 989/64/2 992/66/2 990/68/2
f 993/67/2 994/66/2 995/69/2
f 993/67/2 996/68/2 994/66/2
f 997/74/2 998/69/2 999/66/2
f 997/74/2 1000/91/2 998/69/2
f 1001/81/23 1002/58/23 1003/78/23
f 1001/81/24 1004/92/24 1002/58/24
f 1005/58/24 1006/81/24 1007/92/24
f 1005/58/25 1008/78/25 1006/81/25
f 1009/92/26 1010/78/26 1011/81/26
f 1009/92/27 1012/58/27 1010/78/27
f 1013/81/2 1014/58/2 1015/78/2
f 1013/81/2 1016/92/2 1014/58/2
f 1017/78/2 1018/92/2 1019/58/2
f 1017/78/2 1020/81/2 1018/92/2
f 1021/58/28 1022/81/28 1023/92/28
f 1021/58/29 1024/78/29 1022/81/29
f 1025/92/30 1026/78/30 1027/81/30
f 1025/92/31 1028/58/31 1026/78/31
f 1029/81/4 1030/72/4 1031/93/4
f 1029/81/4 1032/76/4 1030/72/4
f 1033/93/4 1034/76/4 1035/72/4
f 1033/93/4 1036/81/4 1034/76/4
f 1037/76/4 1038/3/4 1039/57/4
f 1037/76/4 1040/81/4 1038/3/4
f 1041/57/4 1042/13/4 1043/62/4
f 1041/57/4 1044/3/4 1042/13/4
f 1045/63/4 1046/62/4 1047/13/4
f 1045/63/4 1048/60/4 1046/62/4
f 1049/62/4 1050/63/4 1051/60/4
f 1049/62/4 1052/13/4 1050/63/4
f 1053/85/32 1054/86/32 1055/84/32
f 1053/85/33 1056/87/33 1054/86/33
f 1057/84/33 1058/87/33 1059/86/33
f 1057/84/33 1060/85/33 1058/87/33
f 1061/86/33 1062/85/33 1063/87/33
f 1061/86/33 1064/84/33 1062/85/33
f 1065/87/33 1066/84/33 1067/85/33
f 1065/87/33 1068/86/33 1066/84/33
f 1069/40/33 1070/83/33 1071/84/33
f 1069/40/33 1072/42/33 1070/83/33
f 1073/85/33 1074/86/33 1075/84/33
f 1073/85/33 1076/87/33 1074/86/33
f 1077/84/33 1078/42/33 1079/83/33
f 1077/84/33 1080/40/33 1078/42/33
f 1081/84/33 1082/56/33 1083/40/33
f 1081/84/33 1084/86/33 1082/56/33
f 1085/40/34 1086/86/34 1087/56/34
f 1085/40/35 1088/84/35 1086/86/35
f 1089/42/33 1090/87/33 1091/56/33
f 1089/42/33 1092/88/33 1090/87/33
f 1093/56/33 1094/88/33 1095/87/33
f 1093/56/33 1096/42/33 1094/88/33
f 1097/87/33 1098/42/33 1099/88/33
f 1097/87/33 1100/56/33 1098/42/33
f 1101/88/33 1102/56/33 1103/42/33
f 1101/88/33 1104/87/33 1102/56/33
f 1105/42/33 1106/87/33 1107/56/33
f 1105/42/33 1108/88/33 1106/87/33
f 1109/87/33 1110/42/33 1111/88/33
f 1109/87/33 1112/56/33 1110/42/33
f 1113/88/33 1114/56/33 1115/42/33
f 1113/88/33 1116/87/33 1114/56/33
f 1117/42/33 1118/87/33 1119/56/33
f 1117/42/33 1120/88/33 1118/87/33
f 1121/56/33 1122/88/33 1123/87/33
f 1121/56/33 1124/42/33 1122/88/33
f 1125/87/33 1126/42/33 1127/88/33
f 1125/87/33 1128/56/33 1126/42/33
f 1129/52/33 1130/44/33 1131/46/33
f 1129/52/33 1132/41/33 1130/44/33
f 1133/44/33 1134/52/33 1135/41/33
f 1133/44/33 1136/46/33 1134/52/33
f 1137/46/33 1138/41/33 1139/44/33
f 1137/46/33 1140/52/33 1138/41/33
f 1141/40/33 1142/41/33 1143/42/33
f 1141/40/33 1144/43/33 1142/41/33
f 1145/20/33 1146/33/33 1147/36/33
f 1145/20/33 1148/17/33 1146/33/33
f 1149/33/33 1150/20/33 1151/17/33
f 1149/33/33 1152/36/33 1150/20/33
f 1153/26/33 1154/89/33 1155/54/33
f 1153/26/33 1156/27/33 1154/89/33
f 1157/26/33 1158/89/33 1159/54/33
f 1157/26/33 1160/27/33 1158/89/33
f 1161/54/36 1162/27/36 1163/89/36
f 1161/54/36 1164/26/36 1162/27/36
f 1165/89/36 1166/26/36 1167/27/36
f 1165/89/36 1168/54/36 1166/26/36
f 1169/54/37 1170/90/37 1171/53/37
f 1169/54/2 1172/50/2 1170/90/2
f 1173/89/36 1174/26/36 1175/27/36
f 1173/89/36 1176/54/36 1174/26/36
f 1177/27/36 1178/54/36 1179/26/36
f 1177/27/36 1180/89/36 1178/54/36
f 1181/56/7 1182/43/7 1183/40/7
f 1181/56/7 1184/44/7 1182/43/7
f 1185/87/18 1186/84/18 1187/85/18
f 1185/87/18 1188/86/18 1186/84/18
f 1189/52/7 1190/43/7 1191/45/7
f 1189/52/7 1192/41/7 1190/43/7
f 1193/42/38 1194/43/38 1195/41/38
f 1193/42/38 1196/40/38 1194/43/38
f 1197/42/38 1198/43/38 1199/41/38
f 1197/42/38 1200/40/38 1198/43/38
f 1201/43/7 1202/42/7 1203/40/7
f 1201/43/39 1204/41/39 1202/42/39
f 1205/87/38 1206/84/38 1207/85/38
f 1205/87/38 1208/86/38 1206/84/38
f 1209/52/7 1210/43/7 1211/45/7
f 1209/52/7 1212/41/7 1210/43/7
f 1213/43/15 1214/52/15 1215/41/15
f 1213/43/40 1216/45/40 1214/52/40
f 1217/44/7 1218/40/7 1219/56/7
f 1217/44/7 1220/43/7 1218/40/7
f 1221/52/7 1222/43/7 1223/45/7
f 1221/52/7 1224/41/7 1222/43/7
f 1225/44/38 1226/40/38 1227/56/38
f 1225/44/6 1228/43/6 1226/40/6
f 1229/47/1 1230/48/1 1231/49/1
f 1229/47/1 1232/50/1 1230/48/1
f 1233/21/36 1234/39/36 1235/25/36
f 1233/21/36 1236/23/36 1234/39/36
f 1237/26/36 1238/24/36 1239/21/36
f 1237/26/36 1240/55/36 1238/24/36
f 1241/39/41 1242/21/41 1243/23/41
f 1241/39/5 1244/25/5 1242/21/5
f 1245/21/2 1246/27/2 1247/26/2
f 1245/21/42 1248/25/42 1246/27/42
f 1249/26/43 1250/25/43 1251/27/43
f 1249/26/44 1252/21/44 1250/25/44
f 1253/17/2 1254/36/2 1255/20/2
f 1253/17/2 1256/33/2 1254/36/2
f 1257/36/2 1258/17/2 1259/33/2
f 1257/36/2 1260/20/2 1258/17/2
f 1261/32/2 1262/30/2 1263/29/2
f 1261/32/2 1264/82/2 1262/30/2
f 1265/29/2 1266/82/2 1267/30/2
f 1265/29/2 1268/32/2 1266/82/2
f 1269/8/2 1270/15/2 1271/16/2
f 1269/8/2 1272/5/2 1270/15/2
f 1273/8/2 1274/9/2 1275/6/2
f 1273/8/2 1276/10/2 1274/9/2
f 1277/10/2 1278/6/2 1279/8/2
f 1277/10/2 1280/9/2 1278/6/2
f 1281/36/2 1282/17/2 1283/33/2
f 1281/36/2 1284/20/2 1282/17/2
f 1285/87/45 1286/84/45 1287/85/45
f 1285/87/45 1288/86/45 1286/84/45
f 1289/28/2 1290/29/2 1291/30/2
f 1289/28/2 1292/31/2 1290/29/2
f 1293/31/2 1294/30/2 1295/28/2
f 1293/31/2 1296/29/2 1294/30/2
f 1297/28/2 1298/29/2 1299/30/2
f 1297/28/2 1300/31/2 1298/29/2
f 1301/9/2 1302/30/2 1303/82/2
f 1301/9/2 1304/10/2 1302/30/2
f 1305/33/2 1306/38/2 1307/34/2
f 1305/33/2 1308/17/2 1306/38/2
f 1309/82/2 1310/10/2 1311/30/2
f 1309/82/2 1312/9/2 1310/10/2
f 1313/28/2 1314/29/2 1315/30/2
f 1313/28/2 1316/31/2 1314/29/2
f 1317/28/2 1318/29/2 1319/30/2
f 1317/28/2 1320/31/2 1318/29/2
f 1321/30/2 1322/31/2 1323/29/2
f 1321/30/2 1324/28/2 1322/31/2
f 1325/87/44 1326/84/44 1327/85/44
f 1325/87/46 1328/86/46 1326/84/46
f 1329/28/2 1330/29/2 1331/30/2
f 1329/28/2 1332/31/2 1330/29/2
f 1333/28/2 1334/29/2 1335/30/2
f 1333/28/2 1336/31/2 1334/29/2
f 1337/10/2 1338/82/2 1339/9/2
f 1337/10/2 1340/30/2 1338/82/2
f 1341/87/18 1342/84/18 1343/85/18
f 1341/87/18 1344/86/18 1342/84/18
f 1345/9/47 1346/30/47 1347/82/47
f 1345/9/19 1348/10/19 1346/30/19
f 1349/38/2 1350/33/2 1351/17/2
f 1349/38/2 1352/34/2 1350/33/2
f 1353/17/2 1354/34/2 1355/33/2
f 1353/17/2 1356/38/2 1354/34/2
f 1357/34/2 1358/17/2 1359/38/2
f 1357/34/2 1360/33/2 1358/17/2
f 1361/38/2 1362/33/2 1363/17/2
f 1361/38/2 1364/34/2 1362/33/2
f 1365/38/2 1366/33/2 1367/17/2
f 1365/38/2 1368/34/2 1366/33/2
f 1369/33/2 1370/38/2 1371/34/2
f 1369/33/2 1372/17/2 1370/38/2
f 1373/34/2 1374/17/2 1375/38/2
f 1373/34/2 1376/33/2 1374/17/2
f 1377/38/2 1378/33/2 1379/17/2
f 1377/38/2 1380/34/2 1378/33/2
f 1381/17/2 1382/34/2 1383/33/2
f 1381/17/2 1384/38/2 1382/34/2
f 1385/34/2 1386/17/2 1387/38/2
f 1385/34/2 1388/33/2 1386/17/2
f 1389/17/5 1390/34/5 1391/33/5
f 1389/17/5 1392/38/5 1390/34/5
f 1393/87/45 1394/84/45 1395/85/45
f 1393/87/45 1396/86/45 1394/84/45
f 1397/17/2 1398/34/2 1399/33/2
f 1397/17/2 1400/38/2 1398/34/2
f 1401/34/2 1402/17/2 1403/38/2
f 1401/34/2 1404/33/2 1402/17/2
f 1405/10/2 1406/28/2 1407/30/2
f 1405/10/2 1408/35/2 1406/28/2
f 1409/37/2 1410/17/2 1411/19/2
f 1409/37/2 1412/38/2 1410/17/2
f 1413/17/2 1414/37/2 1415/38/2
f 1413/17/2 1416/19/2 1414/37/2
f 1417/37/2 1418/17/2 1419/19/2
f 1417/37/2 1420/38/2 1418/17/2
f 1421/25/2 1422/23/2 1423/39/2
f 1421/25/2 1424/21/2 1422/23/2
f 1425/39/2 1426/21/2 1427/23/2
f 1425/39/2 1428/25/2 1426/21/2
f 1429/21/2 1430/22/2 1431/23/2
f 1429/21/2 1432/24/2 1430/22/2
f 1433/24/2 1434/23/2 1435/21/2
f 1433/24/2 1436/22/2 1434/23/2
f 1437/23/2 1438/24/2 1439/22/2
f 1437/23/2 1440/21/2 1438/24/2
f 1441/23/2 1442/18/2 1443/39/2
f 1441/23/2 1444/19/2 1442/18/2
f 1445/18/2 1446/23/2 1447/19/2
f 1445/18/2 1448/39/2 1446/23/2
f 1449/9/2 1450/8/2 1451/10/2
f 1449/9/2 1452/6/2 1450/8/2
f 1453/10/2 1454/6/2 1455/8/2
f 1453/10/2 1456/9/2 1454/6/2
f 1457/8/2 1458/9/2 1459/6/2
f 1457/8/2 1460/10/2 1458/9/2
f 1461/30/5 1462/31/5 1463/29/5
f 1461/30/5 1464/28/5 1462/31/5
f 1465/87/18 1466/84/18 1467/85/18
f 1465/87/18 1468/86/18 1466/84/18
f 1469/33/5 1470/32/5 1471/29/5
f 1469/33/5 1472/34/5 1470/32/5
f 1473/87/48 1474/84/48 1475/85/48
f 1473/87/45 1476/86/45 1474/84/45
f 1477/87/18 1478/84/18 1479/85/18
f 1477/87/18 1480/86/18 1478/84/18
f 1481/87/18 1482/84/18 1483/85/18
f 1481/87/18 1484/86/18 1482/84/18
f 1485/87/18 1486/84/18 1487/85/18
f 1485/87/18 1488/86/18 1486/84/18
f 1489/89/15 1490/26/15 1491/27/15
f 1489/89/35 1492/54/35 1490/26/35
f 1493/27/33 1494/54/33 1495/26/33
f 1493/27/33 1496/89/33 1494/54/33
f 1497/54/33 1498/27/33 1499/89/33
f 1497/54/33 1500/26/33 1498/27/33
f 1501/27/33 1502/54/33 1503/26/33
f 1501/27/33 1504/89/33 1502/54/33
f 1505/50/33 1506/53/33 1507/54/33
f 1505/50/33 1508/90/33 1506/53/33
f 1509/87/18 1510/84/18 1511/85/18
f 1509/87/18 1512/86/18 1510/84/18
f 1513/54/33 1514/55/33 1515/26/33
f 1513/54/33 1516/53/33 1514/55/33
f 1517/87/18 1518/84/18 1519/85/18
f 1517/87/18 1520/86/18 1518/84/18
f 1521/26/33 1522/89/33 1523/54/33
f 1521/26/33 1524/27/33 1522/89/33
f 1525/50/33 1526/53/33 1527/54/33
f 1525/50/33 1528/90/33 1526/53/33
f 1529/54/33 1530/90/33 1531/53/33
f 1529/54/33 1532/50/33 1530/90/33
f 1533/90/33 1534/54/33 1535/50/33
f 1533/90/33 1536/53/33 1534/54/33
f 1537/48/33 1538/54/33 1539/89/33
f 1537/48/44 1540/50/44 1538/54/44
f 1541/26/33 1542/53/33 1543/55/33
f 1541/26/33 1544/54/33 1542/53/33
f 1545/52/49 1546/43/49 1547/45/49
f 1545/52/49 1548/41/49 1546/43/49
f 1549/40/7 1550/41/7 1551/42/7
f 1549/40/7 1552/43/7 1550/41/7
f 1553/43/7 1554/56/7 1555/44/7
f 1553/43/7 1556/40/7 1554/56/7
f 1557/44/7 1558/40/7 1559/56/7
f 1557/44/7 1560/43/7 1558/40/7
f 1561/43/7 1562/42/7 1563/40/7
f 1561/43/7 1564/41/7 1562/42/7
f 1565/87/18 1566/84/18 1567/85/18
f 1565/87/18 1568/86/18 1566/84/18
f 1569/63/2 1570/64/2 1571/61/2
f 1569/63/2 1572/65/2 1570/64/2
f 1573/73/2 1574/11/2 1575/62/2
f 1573/73/2 1576/14/2 1574/11/2
f 1577/57/2 1578/58/2 1579/1/2
f 1577/57/2 1580/59/2 1578/58/2
f 1581/80/2 1582/78/2 1583/77/2
f 1581/80/2 1584/81/2 1582/78/2
f 1585/1/2 1586/92/2 1587/3/2
f 1585/1/2 1588/58/2 1586/92/2
f 1589/14/2 1590/62/2 1591/73/2
f 1589/14/2 1592/11/2 1590/62/2
f 1593/67/2 1594/85/2 1595/88/2
f 1593/67/2 1596/69/2 1594/85/2
f 1597/68/2 1598/65/2 1599/74/2
f 1597/68/2 1600/75/2 1598/65/2
f 1601/80/50 1602/71/50 1603/2/50
f 1601/80/3 1604/79/3 1602/71/3
f 1605/86/33 1606/85/33 1607/87/33
f 1605/86/51 1608/84/51 1606/85/51
f 1609/85/52 1610/86/52 1611/84/52
f 1609/85/53 1612/87/53 1610/86/53
f 1613/42/33 1614/84/33 1615/40/33
f 1613/42/33 1616/83/33 1614/84/33
f 1617/56/52 1618/84/52 1619/86/52
f 1617/56/52 1620/40/52 1618/84/52
f 1621/85/33 1622/83/33 1623/88/33
f 1621/85/33 1624/84/33 1622/83/33
f 1625/88/33 1626/84/33 1627/83/33
f 1625/88/33 1628/85/33 1626/84/33
f 1629/83/52 1630/85/52 1631/84/52
f 1629/83/52 1632/88/52 1630/85/52
f 1633/56/33 1634/84/33 1635/86/33
f 1633/56/33 1636/40/33 1634/84/33
f 1637/84/52 1638/42/52 1639/83/52
f 1637/84/52 1640/40/52 1638/42/52
f 1641/83/33 1642/40/33 1643/42/33
f 1641/83/33 1644/84/33 1642/40/33
f 1645/83/52 1646/85/52 1647/84/52
f 1645/83/52 1648/88/52 1646/85/52
f 1649/86/54 1650/40/54 1651/84/54
f 1649/86/44 1652/56/44 1650/40/44
f 1653/86/55 1654/40/55 1655/84/55
f 1653/86/46 1656/56/46 1654/40/46
f 1657/85/45 1658/83/45 1659/88/45
f 1657/85/45 1660/84/45 1658/83/45
f 1661/88/45 1662/84/45 1663/83/45
f 1661/88/45 1664/85/45 1662/84/45
f 1665/84/18 1666/87/18 1667/86/18
f 1665/84/18 1668/85/18 1666/87/18
f 1669/87/18 1670/84/18 1671/85/18
f 1669/87/18 1672/86/18 1670/84/18
f 1673/87/18 1674/84/18 1675/85/18
f 1673/87/18 1676/86/18 1674/84/18
f 1677/87/18 1678/84/18 1679/85/18
f 1677/87/18 1680/86/18 1678/84/18
f 1681/87/18 1682/84/18 1683/85/18
f 1681/87/18 1684/86/18 1682/84/18
f 1685/87/18 1686/84/18 1687/85/18
f 1685/87/18 1688/86/18 1686/84/18
f 1689/87/18 1690/84/18 1691/85/18
f 1689/87/18 1692/86/18 1690/84/18
f 1693/87/18 1694/84/18 1695/85/18
f 1693/87/18 1696/86/18 1694/84/18
f 1697/87/18 1698/84/18 1699/85/18
f 1697/87/18 1700/86/18 1698/84/18
f 1701/87/18 1702/84/18 1703/85/18
f 1701/87/18 1704/86/18 1702/84/18
f 1705/87/18 1706/84/18 1707/85/18
f 1705/87/18 1708/86/18 1706/84/18
f 1709/87/18 1710/84/18 1711/85/18
f 1709/87/18 1712/86/18 1710/84/18
f 1713/87/18 1714/84/18 1715/85/18
f 1713/87/18 1716/86/18 1714/84/18
f 1717/87/18 1718/84/18 1719/85/18
f 1717/87/18 1720/86/18 1718/84/18
f 1721/87/18 1722/84/18 1723/85/18
f 1721/87/18 1724/86/18 1722/84/18
f 1725/87/18 1726/84/18 1727/85/18
f 1725/87/18 1728/86/18 1726/84/18
f 1729/87/18 1730/84/18 1731/85/18
f 1729/87/18 1732/86/18 1730/84/18
f 1733/87/18 1734/84/18 1735/85/18
f 1733/87/18 1736/86/18 1734/84/18
f 1737/87/18 1738/84/18 1739/85/18
f 1737/87/18 1740/86/18 1738/84/18
f 1741/13/56 1742/75/56 1743/62/56
f 1741/13/57 1744/65/57 1742/75/57
f 1745/62/2 1746/65/2 1747/75/2
f 1745/62/2 1748/13/2 1746/65/2
f 1749/75/2 1750/13/2 1751/65/2
f 1749/75/2 1752/62/2 1750/13/2
f 1753/13/2 1754/57/2 1755/3/2
f 1753/13/58 1756/62/58 1754/57/58
f 1757/3/2 1758/62/2 1759/57/2
f 1757/3/2 1760/13/2 1758/62/2
f 1761/62/2 1762/3/2 1763/13/2
f 1761/62/2 1764/57/2 1762/3/2
f 1765/67/56 1766/65/56 1767/91/56
f 1765/67/56 1768/75/56 1766/65/56
f 1769/65/2 1770/67/2 1771/75/2
f 1769/65/2 1772/91/2 1770/67/2
f 1773/67/2 1774/65/2 1775/91/2
f 1773/67/2 1776/75/2 1774/65/2
f 1777/75/2 1778/91/2 1779/67/2
f 1777/75/2 1780/65/2 1778/91/2
f 1781/67/2 1782/65/2 1783/91/2
f 1781/67/2 1784/75/2 1782/65/2
f 1785/13/2 1786/57/2 1787/3/2
f 1785/13/2 1788/62/2 1786/57/2
f 1789/3/2 1790/62/2 1791/57/2
f 1789/3/2 1792/13/2 1790/62/2
f 1793/57/2 1794/13/2 1795/62/2
f 1793/57/2 1796/3/2 1794/13/2
f 1797/76/2 1798/93/2 1799/81/2
f 1797/76/2 1800/72/2 1798/93/2
f 1801/81/2 1802/72/2 1803/93/2
f 1801/81/2 1804/76/2 1802/72/2
f 1805/93/2 1806/76/2 1807/72/2
f 1805/93/2 1808/81/2 1806/76/2
f 1809/72/2 1810/81/2 1811/76/2
f 1809/72/2 1812/93/2 1810/81/2
f 1813/76/2 1814/93/2 1815/81/2
f 1813/76/2 1816/72/2 1814/93/2
f 1817/76/2 1818/93/2 1819/81/2
f 1817/76/2 1820/72/2 1818/93/2
f 1821/14/2 1822/3/2 1823/12/2
f 1821/14/2 1824/1/2 1822/3/2
f 1825/12/2 1826/1/2 1827/3/2
f 1825/12/2 1828/14/2 1826/1/2
f 1829/59/2 1830/1/2 1831/57/2
f 1829/59/2 1832/58/2 1830/1/2
f 1833/61/2 1834/13/2 1835/63/2
f 1833/61/2 1836/11/2 1834/13/2
f 1837/63/2 1838/11/2 1839/13/2
f 1837/63/2 1840/61/2 1838/11/2
f 1841/63/2 1842/11/2 1843/13/2
f 1841/63/2 1844/61/2 1842/11/2
f 1845/13/2 1846/61/2 1847/11/2
f 1845/13/2 1848/63/2 1846/61/2
f 1849/75/2 1850/66/2 1851/68/2
f 1849/75/2 1852/64/2 1850/66/2
f 1853/68/2 1854/64/2 1855/66/2
f 1853/68/2 1856/75/2 1854/64/2
f 1857/66/2 1858/75/2 1859/64/2
f 1857/66/2 1860/68/2 1858/75/2
f 1861/62/2 1862/61/2 1863/60/2
f 1861/62/2 1864/11/2 1862/61/2
f 1865/59/2 1866/78/2 1867/58/2
f 1865/59/2 1868/76/2 1866/78/2
f 1869/58/2 1870/76/2 1871/78/2
f 1869/58/2 1872/59/2 1870/76/2
f 1873/80/2 1874/78/2 1875/77/2
f 1873/80/2 1876/81/2 1874/78/2
f 1877/67/2 1878/85/2 1879/88/2
f 1877/67/2 1880/69/2 1878/85/2
usemtl TankFrontWalkAnim-Sheet
f 1881/11/1 1882/12/1 1883/13/1
f 1881/11/1 1884/14/1 1882/12/1
usemtl TileSamples2-Sheet
f 1885/51/1 1886/45/1 1887/46/1
f 1885/51/1 1888/47/1 1886/45/1
f 1889/49/1 1890/45/1 1891/47/1
f 1889/49/1 1892/52/1 1890/45/1
f 1893/5/1 1894/16/1 1895/8/1
f 1893/5/1 1896/15/1 1894/16/1
f 1897/6/1 1898/10/1 1899/9/1
f 1897/6/1 1900/8/1 1898/10/1
f 1901/26/1 1902/89/1 1903/54/1
f 1901/26/1 1904/27/1 1902/89/1
f 1905/48/1 1906/54/1 1907/89/1
f 1905/48/1 1908/50/1 1906/54/1
f 1909/52/1 1910/47/1 1911/49/1
f 1909/52/1 1912/45/1 1910/47/1
f 1913/49/1 1914/45/1 1915/47/1
f 1913/49/1 1916/52/1 1914/45/1
f 1917/51/1 1918/45/1 1919/46/1
f 1917/51/1 1920/47/1 1918/45/1
f 1921/52/1 1922/47/1 1923/49/1
f 1921/52/1 1924/45/1 1922/47/1
f 1925/50/1 1926/51/1 1927/90/1
f 1925/50/1 1928/47/1 1926/51/1
f 1929/23/2 1930/25/2 1931/21/2
f 1929/23/2 1932/39/2 1930/25/2
f 1933/8/2 1934/9/2 1935/6/2
f 1933/8/2 1936/10/2 1934/9/2
f 1937/49/2 1938/45/2 1939/47/2
f 1937/49/2 1940/52/2 1938/45/2
f 1941/47/2 1942/52/2 1943/45/2
f 1941/47/2 1944/49/2 1942/52/2
f 1945/47/2 1946/52/2 1947/45/2
f 1945/47/2 1948/49/2 1946/52/2
f 1949/45/2 1950/49/2 1951/52/2
f 1949/45/2 1952/47/2 1950/49/2
f 1953/52/2 1954/47/2 1955/49/2
f 1953/52/2 1956/45/2 1954/47/2
f 1957/52/2 1958/47/2 1959/49/2
f 1957/52/2 1960/45/2 1958/47/2
f 1961/49/2 1962/45/2 1963/47/2
f 1961/49/2 1964/52/2 1962/45/2
f 1965/47/2 1966/52/2 1967/45/2
f 1965/47/2 1968/49/2 1966/52/2
f 1969/47/2 1970/52/2 1971/45/2
f 1969/47/2 1972/49/2 1970/52/2
f 1973/48/2 1974/54/2 1975/89/2
f 1973/48/2 1976/50/2 1974/54/2
f 1977/54/2 1978/48/2 1979/50/2
f 1977/54/2 1980/89/2 1978/48/2
f 1981/50/2 1982/49/2 1983/47/2
f 1981/50/2 1984/48/2 1982/49/2
f 1985/47/2 1986/52/2 1987/45/2
f 1985/47/2 1988/49/2 1986/52/2
f 1989/51/2 1990/50/2 1991/47/2
f 1989/51/2 1992/90/2 1990/50/2
f 1993/47/2 1994/90/2 1995/50/2
f 1993/47/2 1996/51/2 1994/90/2
f 1997/89/2 1998/50/2 1999/54/2
f 1997/89/2 2000/48/2 1998/50/2
f 2001/50/2 2002/89/2 2003/48/2
f 2001/50/2 2004/54/2 2002/89/2
f 2005/48/2 2006/54/2 2007/89/2
f 2005/48/2 2008/50/2 2006/54/2
f 2009/54/2 2010/48/2 2011/50/2
f 2009/54/2 2012/89/2 2010/48/2
f 2013/50/2 2014/89/2 2015/48/2
f 2013/50/2 2016/54/2 2014/89/2
f 2017/26/2 2018/25/2 2019/27/2
f 2017/26/2 2020/21/2 2018/25/2
f 2021/25/2 2022/26/2 2023/21/2
f 2021/25/2 2024/27/2 2022/26/2
f 2025/21/2 2026/27/2 2027/26/2
f 2025/21/2 2028/25/2 2026/27/2
f 2029/27/2 2030/21/2 2031/25/2
f 2029/27/2 2032/26/2 2030/21/2
f 2033/19/2 2034/38/2 2035/17/2
f 2033/19/2 2036/37/2 2034/38/2
f 2037/17/2 2038/37/2 2039/38/2
f 2037/17/2 2040/19/2 2038/37/2
f 2041/37/2 2042/17/2 2043/19/2
f 2041/37/2 2044/38/2 2042/17/2
f 2045/17/2 2046/36/2 2047/20/2
f 2045/17/2 2048/33/2 2046/36/2
f 2049/20/2 2050/33/2 2051/36/2
f 2049/20/2 2052/17/2 2050/33/2
f 2053/20/2 2054/33/2 2055/36/2
f 2053/20/2 2056/17/2 2054/33/2
f 2057/36/2 2058/17/2 2059/33/2
f 2057/36/2 2060/20/2 2058/17/2
f 2061/33/2 2062/20/2 2063/17/2
f 2061/33/2 2064/36/2 2062/20/2
f 2065/26/2 2066/89/2 2067/54/2
f 2065/26/2 2068/27/2 2066/89/2
f 2069/27/2 2070/54/2 2071/26/2
f 2069/27/2 2072/89/2 2070/54/2
f 2073/54/2 2074/48/2 2075/50/2
f 2073/54/2 2076/89/2 2074/48/2
f 2077/50/2 2078/89/2 2079/48/2
f 2077/50/2 2080/54/2 2078/89/2
f 2081/48/2 2082/47/2 2083/50/2
f 2081/48/2 2084/49/2 2082/47/2
f 2085/50/2 2086/49/2 2087/47/2
f 2085/50/2 2088/48/2 2086/49/2
f 2089/31/2 2090/30/2 2091/28/2
f 2089/31/2 2092/29/2 2090/30/2
f 2093/54/2 2094/90/2 2095/53/2
f 2093/54/2 2096/50/2 2094/90/2
f 2097/33/2 2098/32/2 2099/29/2
f 2097/33/2 2100/34/2 2098/32/2
f 2101/16/2 2102/5/2 2103/15/2
f 2101/16/2 2104/8/2 2102/5/2
f 2105/15/2 2106/8/2 2107/5/2
f 2105/15/2 2108/16/2 2106/8/2
f 2109/18/2 2110/17/2 2111/20/2
f 2109/18/2 2112/19/2 2110/17/2
f 2113/33/2 2114/31/2 2115/36/2
f 2113/33/2 2116/29/2 2114/31/2
f 2117/31/2 2118/33/2 2119/29/2
f 2117/31/2 2120/36/2 2118/33/2
f 2121/17/2 2122/37/2 2123/38/2
f 2121/17/2 2124/19/2 2122/37/2
f 2125/38/2 2126/19/2 2127/37/2
f 2125/38/2 2128/17/2 2126/19/2
f 2129/23/2 2130/18/2 2131/39/2
f 2129/23/2 2132/19/2 2130/18/2
f 2133/27/2 2134/21/2 2135/25/2
f 2133/27/2 2136/26/2 2134/21/2
f 2137/39/2 2138/21/2 2139/23/2
f 2137/39/2 2140/25/2 2138/21/2
f 2141/90/2 2142/47/2 2143/51/2
f 2141/90/2 2144/50/2 2142/47/2
f 2145/49/2 2146/45/2 2147/47/2
f 2145/49/2 2148/52/2 2146/45/2
f 2149/51/2 2150/50/2 2151/47/2
f 2149/51/2 2152/90/2 2150/50/2
f 2153/89/2 2154/50/2 2155/54/2
f 2153/89/2 2156/48/2 2154/50/2
f 2157/47/2 2158/52/2 2159/45/2
f 2157/47/2 2160/49/2 2158/52/2
f 2161/51/2 2162/45/2 2163/46/2
f 2161/51/2 2164/47/2 2162/45/2
f 2165/27/2 2166/54/2 2167/26/2
f 2165/27/2 2168/89/2 2166/54/2
f 2169/24/2 2170/23/2 2171/21/2
f 2169/24/2 2172/22/2 2170/23/2
f 2173/26/2 2174/25/2 2175/27/2
f 2173/26/2 2176/21/2 2174/25/2
f 2177/27/2 2178/54/2 2179/26/2
f 2177/27/2 2180/89/2 2178/54/2
f 2181/24/2 2182/26/2 2183/55/2
f 2181/24/2 2184/21/2 2182/26/2
f 2185/29/2 2186/36/2 2187/33/2
f 2185/29/2 2188/31/2 2186/36/2
f 2189/24/2 2190/26/2 2191/55/2
f 2189/24/2 2192/21/2 2190/26/2
f 2193/31/2 2194/30/2 2195/28/2
f 2193/31/2 2196/29/2 2194/30/2
f 2197/35/2 2198/8/2 2199/16/2
f 2197/35/2 2200/10/2 2198/8/2
f 2201/16/2 2202/10/2 2203/8/2
f 2201/16/2 2204/35/2 2202/10/2
f 2205/54/2 2206/48/2 2207/50/2
f 2205/54/2 2208/89/2 2206/48/2
f 2209/45/2 2210/49/2 2211/52/2
f 2209/45/2 2212/47/2 2210/49/2
f 2213/47/2 2214/90/2 2215/50/2
f 2213/47/2 2216/51/2 2214/90/2
f 2217/45/2 2218/51/2 2219/47/2
f 2217/45/2 2220/46/2 2218/51/2
f 2221/50/2 2222/49/2 2223/47/2
f 2221/50/2 2224/48/2 2222/49/2
f 2225/26/2 2226/25/2 2227/27/2
f 2225/26/2 2228/21/2 2226/25/2
f 2229/37/2 2230/17/2 2231/19/2
f 2229/37/2 2232/38/2 2230/17/2
f 2233/49/2 2234/50/2 2235/48/2
f 2233/49/2 2236/47/2 2234/50/2
f 2237/48/2 2238/47/2 2239/50/2
f 2237/48/2 2240/49/2 2238/47/2
f 2241/49/2 2242/45/2 2243/47/2
f 2241/49/2 2244/52/2 2242/45/2
f 2245/47/2 2246/52/2 2247/45/2
f 2245/47/2 2248/49/2 2246/52/2
f 2249/54/2 2250/48/2 2251/50/2
f 2249/54/2 2252/89/2 2250/48/2
f 2253/45/2 2254/49/2 2255/52/2
f 2253/45/2 2256/47/2 2254/49/2
f 2257/19/2 2258/22/2 2259/37/2
f 2257/19/2 2260/23/2 2258/22/2
f 2261/37/2 2262/23/2 2263/22/2
f 2261/37/2 2264/19/2 2262/23/2
f 2265/19/2 2266/22/2 2267/37/2
f 2265/19/2 2268/23/2 2266/22/2
f 2269/19/2 2270/22/2 2271/37/2
f 2269/19/2 2272/23/2 2270/22/2
f 2273/22/2 2274/19/2 2275/23/2
f 2273/22/2 2276/37/2 2274/19/2
f 2277/29/2 2278/36/2 2279/33/2
f 2277/29/2 2280/31/2 2278/36/2
f 2281/33/2 2282/31/2 2283/36/2
f 2281/33/2 2284/29/2 2282/31/2
f 2285/36/2 2286/29/2 2287/31/2
f 2285/36/2 2288/33/2 2286/29/2
f 2289/17/2 2290/37/2 2291/38/2
f 2289/17/2 2292/19/2 2290/37/2
f 2293/38/2 2294/19/2 2295/37/2
f 2293/38/2 2296/17/2 2294/19/2
f 2297/45/2 2298/51/2 2299/47/2
f 2297/45/2 2300/46/2 2298/51/2
f 2301/39/2 2302/21/2 2303/23/2
f 2301/39/2 2304/25/2 2302/21/2
f 2305/29/2 2306/36/2 2307/33/2
f 2305/29/2 2308/31/2 2306/36/2
f 2309/30/2 2310/35/2 2311/28/2
f 2309/30/2 2312/10/2 2310/35/2
f 2313/28/2 2314/10/2 2315/35/2
f 2313/28/2 2316/30/2 2314/10/2
f 2317/35/2 2318/30/2 2319/10/2
f 2317/35/2 2320/28/2 2318/30/2
f 2321/82/2 2322/29/2 2323/32/2
f 2321/82/2 2324/30/2 2322/29/2
f 2325/32/2 2326/30/2 2327/29/2
f 2325/32/2 2328/82/2 2326/30/2
f 2329/18/2 2330/17/2 2331/20/2
f 2329/18/2 2332/19/2 2330/17/2
usemtl pxArt (1)
f 2333/1/1 2334/2/1 2335/3/1
f 2333/1/1 2336/4/1 2334/2/1
f 2337/1/1 2338/2/1 2339/3/1
f 2337/1/1 2340/4/1 2338/2/1
f 2341/1/2 2342/2/2 2343/3/2
f 2341/1/2 2344/4/2 2342/2/2
f 2345/1/59 2346/68/59 2347/57/59
f 2345/1/59 2348/66/59 2346/68/59
f 2349/1/18 2350/71/18 2351/4/18
f 2349/1/18 2352/57/18 2350/71/18
f 2353/66/33 2354/57/33 2355/1/33
f 2353/66/33 2356/68/33 2354/57/33
f 2357/1/1 2358/74/1 2359/66/1
f 2357/1/1 2360/3/1 2358/74/1
f 2361/1/2 2362/74/2 2363/66/2
f 2361/1/2 2364/3/2 2362/74/2
f 2365/33/59 2366/7/59 2367/5/59
f 2365/33/59 2368/34/59 2366/7/59
f 2369/33/33 2370/7/33 2371/5/33
f 2369/33/33 2372/34/33 2370/7/33
f 2373/33/18 2374/7/18 2375/5/18
f 2373/33/18 2376/34/18 2374/7/18
f 2377/7/2 2378/33/2 2379/34/2
f 2377/7/2 2380/5/2 2378/33/2
f 2381/5/60 2382/34/60 2383/7/60
f 2381/5/60 2384/33/60 2382/34/60
f 2385/5/33 2386/34/33 2387/7/33
f 2385/5/33 2388/33/33 2386/34/33
f 2389/33/2 2390/7/2 2391/5/2
f 2389/33/2 2392/34/2 2390/7/2
f 2393/7/1 2394/33/1 2395/34/1
f 2393/7/1 2396/5/1 2394/33/1
