mtllib TestBlocksNew.mtl
o Default
v 1 -1 -1
v 1 0 -1
v 2 0 -1
v 2 -1 -1
v 0 -1 -1
v 1 0 -1
v 0 0 -1
v 1 -1 -1
v 0 0 0
v 1 0 -1
v 0 0 -1
v 1 0 0
v 1 0 0
v 2 0 -1
v 1 0 -1
v 2 0 0
v 1 0 1
v 2 0 0
v 1 0 0
v 2 0 1
v 0 0 1
v 1 0 0
v 0 0 0
v 1 0 1
v 0 0 -1
v 1 0 -2
v 0 0.5 -2
v 1 0 -1
v 1 0 -1
v 2 0 -2
v 1 0 -2
v 2 0 -1
v 2 0 1
v 3 0 0
v 2 0 0
v 3 0 1
v 2 0 0
v 3 0 -1
v 2 0 -1
v 3 0 0
v 2 0 -1
v 3 0 -2
v 2 0 -2
v 3 0 -1
v 3 0 -1
v 4 -0.5 -2
v 3 0 -2
v 4 0 -1
v 1 0 -2
v 2 0 -3
v 1 0 -3
v 2 0 -2
v 0 0.5 -2
v 1 0 -3
v 0 0 -3
v 1 0 -2
v 2 0 -2
v 3 0 -3
v 2 0 -3
v 3 0 -2
v 2 1 -2
v 3 2 -2
v 2 2 -2
v 3 1 -2
v 3 0 0
v 4 0 -1
v 3 0 -1
v 4 -0.5 0
v 3 0 1
v 4 -0.5 0
v 3 0 0
v 4 -0.5 1
v 4 -0.5 -2
v 5 0 -3
v 4 0 -3
v 5 -0.5 -2
v 3 0 -2
v 4 0 -3
v 3 0 -3
v 4 -0.5 -2
v 4 -0.5 1
v 5 -0.5 0
v 4 -0.5 0
v 5 -0.5 1
v 4 -0.5 0
v 5 -0.5 -1
v 4 0 -1
v 5 -0.5 0
v 4 0 -1
v 5 -0.5 -2
v 4 -0.5 -2
v 5 -0.5 -1
v 5 -0.5 1
v 5.5 -1 0
v 5 -0.5 0
v 5.5 -1 1
v 5 -0.5 0
v 5.5 -1 -1
v 5 -0.5 -1
v 5.5 -1 0
v 5 -0.5 -1
v 6 -0.5 -2
v 5 -0.5 -2
v 5.5 -1 -1
v 5 -0.5 -2
v 6 -0.5 -3
v 5 0 -3
v 6 -0.5 -2
v 6 -0.5 -2
v 7 -0.5 -3
v 6 -0.5 -2.5
v 7 -1 -2
v 5 -1 -2
v 6 -0.5 -3
v 5 -1 -3
v 6 -1 -1.5
v 5.5 -1 0
v 6 -1.5 -1
v 5.5 -1 -1
v 6 -1.5 0
v 5.5 -1 1
v 6 -1.5 0
v 5.5 -1 0
v 6 -1.5 1
v 6 -1 -1.5
v 7 -0.5 -3
v 5 0 -3
v 7 -1 -2
v 5.5 -1 -1
v 6 -0.5 -2
v 5 -1 -2
v 6 -1.5 -1
v 6.5 -1.5 -1
v 7 -1 -2
v 6.5 -1 -2
v 7.5 -2 -1
v 6 -1.5 -1
v 6.5 -1 -2
v 5.5 -0.5 -2
v 6.5 -1.5 -1
v 5.5 -1.5 1
v 6.5 -1.5 0
v 5.5 -1.5 0
v 6.5 -1.5 1
v 6.5 -1.5 1
v 7.5 -2 0
v 6.5 -1.5 0
v 7.5 -2 1
v 5.5 -1.5 0
v 6.5 -1.5 -1
v 5.5 -1.5 -1
v 6.5 -1.5 0
v 6.5 -1.5 0
v 7.5 -2 -1
v 6.5 -1.5 -1
v 7.5 -2 0
v 7.5 -2 1
v 8.5 -2.5 0
v 7.5 -2 0
v 8.5 -2.5 1
v 7.5 -2 0
v 8.5 -2.5 -1
v 7.5 -2 -1
v 8.5 -2.5 0
v 7 -1 -2
v 7.5 -2 -2
v 7 -0.5 -3
v 7.5 -2 -1
v 8 -2.5 -0.5
v 8.5 -2.5 -2
v 8 -2 -2
v 8.5 -2.5 -1
v 7 -2 -1
v 8 -2 -2
v 7 -2 -2
v 8 -2.5 -0.5
v 8.5 -2.5 1
v 9.5 -2.5 0
v 8.5 -2.5 0
v 9.5 -2.5 1
v 8.5 -2.5 0
v 9.5 -2.5 -1
v 8.5 -2.5 -1
v 9.5 -2.5 0
v 8.5 -2.5 -1
v 9.5 -2.5 -2
v 8.5 -2.5 -2
v 9.5 -2.5 -1
v 9.5 -2.5 1
v 10.5 -2.5 0
v 9.5 -2.5 0
v 10.5 -2.5 1
v 10.5 -2.5 0
v 11.5 -2.5 -1
v 10.5 -2.5 -1
v 11.5 -2.5 0
v 9.5 -2.5 0
v 10.5 -2.5 -1
v 9.5 -2.5 -1
v 10.5 -2.5 0
v 9.5 -2.5 -1
v 10.5 -2.5 -2
v 9.5 -2.5 -2
v 10.5 -2.5 -1
v 8.5 -2.5 -2
v 9.5 -2.5 -3
v 8.5 -2.5 -3
v 9.5 -2.5 -2
v 9.5 -2.5 -3
v 10.5 -2.5 -4
v 9.5 -2.5 -4
v 10.5 -2.5 -3
v 8.5 -2.5 -4
v 9.5 -2.5 -5
v 8.5 -2.5 -5
v 9.5 -2.5 -4
v 8.5 -2.5 -3
v 9.5 -2.5 -4
v 8.5 -2.5 -4
v 9.5 -2.5 -3
v 9.5 -2.5 -2
v 10.5 -2.5 -3
v 9.5 -2.5 -3
v 10.5 -2.5 -2
v 10.5 -2.5 1
v 11.5 -2.5 0
v 10.5 -2.5 0
v 11.5 -2.5 1
v 10.5 -2.5 -1
v 11.5 -2.5 -2
v 10.5 -2.5 -2
v 11.5 -2.5 -1
v 10.5 -2.5 -2
v 11.5 -2.5 -3
v 10.5 -2.5 -3
v 11.5 -2.5 -2
v 10.5 -2.5 -3
v 11.5 -2.5 -4
v 10.5 -2.5 -4
v 11.5 -2.5 -3
v 9.5 -2.5 -4
v 10.5 -2.5 -5
v 9.5 -2.5 -5
v 10.5 -2.5 -4
v 10.5 -2.5 -4
v 11.5 -2.5 -5
v 10.5 -2.5 -5
v 11.5 -2.5 -4
v 0 -1 0
v 1 0 0
v 0 0 0
v 1 -1 0
v 0 0 0
v 1 0 -1
v 0 0 -1
v 1 0 0
v 0 -1 0
v 0 0 -1
v 0 0 0
v 0 -1 -1
v 0 -1 -1
v 0 0 0
v 0 0 -1
v 0 -1 0
v 0 -1 0
v 1 -1 -1
v 0 -1 -1
v 1 -1 0
v 1 -1 -1
v 0 0 -1
v 1 0 -1
v 0 -1 -1
v 1 -1 0
v 1 0 -1
v 1 0 0
v 1 -1 -1
v 0 -1 -1
v 1 -1 0
v 0 -1 0
v 1 -1 -1
v 1 -1 0
v 2 -1 -1
v 1 -1 -1
v 2 -1 0
v 1 -1 0
v 2 0 0
v 1 0 0
v 2 -1 0
v 2 -1 0
v 2 0 -1
v 2 0 0
v 2 -1 -1
v 2 -1 -1
v 1 0 -1
v 2 0 -1
v 1 -1 -1
v 1 -1 -1
v 2 -1 0
v 1 -1 0
v 2 -1 -1
v 1 0 0
v 2 0 -1
v 1 0 -1
v 2 0 0
v 0 -1 -1
v 1 0 -1
v 0 0 -1
v 1 -1 -1
v 1 -1 -1
v 2 0 -1
v 1 0 -1
v 2 -1 -1
vt 0.8333333134651184 0.5
vt 1 1
vt 0.8333333134651184 1
vt 1 0.5
vt 0 0.5
vt 0.03333333507180214 1
vt 0 1
vt 0.03333333507180214 0.5
vt 0.06666667014360428 1
vt 0.06666667014360428 0.5
vt 0.03333333507180214 0
vt 0.06666667014360428 0
vt 0 0
vt 0.20000000298023224 0.5
vt 0.23333333432674408 0
vt 0.23333333432674408 0.5
vt 0.20000000298023224 0
vt 0.30000001192092896 0.5
vt 0.2666666805744171 1
vt 0.2666666805744171 0.5
vt 0.30000001192092896 1
vt 0.30000001192092896 0
vt 0.3333333432674408 0.5
vt 0.3333333432674408 0
vt 0.10000000149011612 0
vt 0.13333334028720856 0.5
vt 0.10000000149011612 0.5
vt 0.13333334028720856 0
vt 0.13333334028720856 1
vt 0.1666666716337204 0.5
vt 0.1666666716337204 1
vt 0.7666666507720947 0.5
vt 0.800000011920929 1
vt 0.7666666507720947 1
vt 0.800000011920929 0.5
vt 0.1666666716337204 0
vt 0.23333333432674408 1
vt 0.20000000298023224 1
vt 0.2666666805744171 0
vt 0.5333333611488342 0.5
vt 0.5 0
vt 0.5333333611488342 0
vt 0.5 0.5
vt 0.5 1
vt 0.46666666865348816 0.5
vt 0.46666666865348816 1
vt 0.4333333373069763 0.5
vt 0.4000000059604645 0
vt 0.4333333373069763 0
vt 0.4000000059604645 0.5
vt 0.4333333373069763 1
vt 0.46666666865348816 0
vt 0.36666667461395264 1
vt 0.36666667461395264 0.5
vt 0.3333333432674408 1
vt 0.5333333611488342 1
vt 0.8333333134651184 0
vt 0.8666666746139526 0.5
vt 0.8666666746139526 0
vt 0.7333333492279053 0
vt 0.7333333492279053 0.5
vt 0.7666666507720947 0
vt 0.7333333492279053 1
vt 0.699999988079071 0.5
vt 0.699999988079071 1
vt 0.6666666865348816 0.5
vt 0.6333333253860474 0
vt 0.6666666865348816 0
vt 0.6333333253860474 0.5
vt 0.6666666865348816 1
vt 0.6333333253860474 1
vt 0.9666666388511658 0.5
vt 1 0
vt 0.9666666388511658 0
vt 0.800000011920929 0
vt 0.699999988079071 0
vt 0.8999999761581421 0
vt 0.9333333373069763 0.5
vt 0.8999999761581421 0.5
vt 0.9333333373069763 0
vt 0.9333333373069763 1
vt 0.8999999761581421 1
vn 0 0 1
vn 0 1 0
vn 0.40824829 0.81649658 0.40824829
vn 0.4472136 0.89442719 0
vn 0 0.89442719 -0.4472136
vn 0 0.89442719 0.4472136
vn 0.70710678 0.70710678 0
vn 0.57735027 0.57735027 0.57735027
vn -0.4472136 0.89442719 0
vn -0.15617376 0.93704257 0.31234752
vn 0.21821789 0.87287156 0.43643578
vn -0.43643578 0.87287156 0.21821789
vn 0.37139068 0.74278135 0.55708601
vn 0.87287156 0.43643578 0.21821789
vn 0.89442719 0.4472136 0
vn 0.6882472 0.6882472 0.22941573
vn 0.30151134 0.90453403 0.30151134
vn 1 0 0
vn -1 0 0
vn 0 0 -1
vn 0 -1 0
g Scene
usemtl pxArt (1)
f 1/1/1 3/2/1 2/3/1
f 1/1/1 4/4/1 3/2/1
f 5/1/1 6/2/1 7/3/1
f 5/1/1 8/4/1 6/2/1
usemtl TileSamples-Sheet
f 9/5/2 10/6/2 11/7/2
f 9/5/2 12/8/2 10/6/2
f 13/8/2 14/9/2 15/6/2
f 13/8/2 16/10/2 14/9/2
f 17/11/2 18/10/2 19/8/2
f 17/11/2 20/12/2 18/10/2
f 21/13/2 22/8/2 23/5/2
f 21/13/2 24/11/2 22/8/2
f 25/13/3 26/8/3 27/5/3
f 25/13/2 28/11/2 26/8/2
f 29/14/2 30/15/2 31/16/2
f 29/14/2 32/17/2 30/15/2
f 33/16/2 34/17/2 35/15/2
f 33/16/2 36/14/2 34/17/2
f 37/18/2 38/19/2 39/20/2
f 37/18/2 40/21/2 38/19/2
f 41/22/2 42/23/2 43/18/2
f 41/22/2 44/24/2 42/23/2
f 45/25/4 46/26/4 47/27/4
f 45/25/5 48/28/5 46/26/5
f 49/25/2 50/26/2 51/27/2
f 49/25/2 52/28/2 50/26/2
f 53/29/5 54/30/5 55/31/5
f 53/29/4 56/26/4 54/30/4
f 57/8/2 58/7/2 59/5/2
f 57/8/2 60/6/2 58/7/2
usemtl TankFrontWalkAnim-Sheet
f 61/32/1 62/33/1 63/34/1
f 61/32/1 64/35/1 62/33/1
usemtl TileSamples-Sheet
f 65/11/2 66/10/2 67/8/2
f 65/11/3 68/12/3 66/10/3
f 69/6/4 70/5/4 71/8/4
f 69/6/4 72/7/4 70/5/4
f 73/14/6 74/36/6 75/17/6
f 73/14/6 76/30/6 74/36/6
f 77/26/2 78/31/2 79/29/2
f 77/26/3 80/30/3 78/31/3
f 81/14/2 82/37/2 83/38/2
f 81/14/2 84/16/2 82/37/2
f 85/15/3 86/20/3 87/16/3
f 85/15/2 88/39/2 86/20/2
f 89/27/5 90/28/5 91/26/5
f 89/27/4 92/25/4 90/28/4
f 93/40/7 94/41/7 95/42/7
f 93/40/7 96/43/7 94/41/7
f 97/44/7 98/45/7 99/43/7
f 97/44/7 100/46/7 98/45/7
f 101/40/2 102/41/2 103/42/2
f 101/40/8 104/43/8 102/41/8
f 105/47/3 106/48/3 107/49/3
f 105/47/2 108/50/2 106/48/2
f 109/45/2 110/51/2 111/47/2
f 109/45/3 112/46/3 110/51/3
f 113/45/9 114/51/9 115/47/9
f 113/45/10 116/46/10 114/51/10
f 117/41/7 118/45/7 119/52/7
f 117/41/7 120/43/7 118/45/7
f 121/43/7 122/52/7 123/41/7
f 121/43/7 124/45/7 122/52/7
f 125/45/11 126/51/11 127/47/11
f 125/45/11 128/46/11 126/51/11
f 129/45/12 130/49/12 131/52/12
f 129/45/8 132/47/8 130/49/8
f 133/42/6 134/43/6 135/41/6
f 133/42/13 136/40/13 134/43/13
f 137/53/13 138/23/13 139/54/13
f 137/53/6 140/55/6 138/23/6
f 141/43/2 142/52/2 143/41/2
f 141/43/2 144/45/2 142/52/2
f 145/41/4 146/45/4 147/52/4
f 145/41/4 148/43/4 146/45/4
f 149/43/2 150/56/2 151/44/2
f 149/43/2 152/40/2 150/56/2
f 153/42/4 154/43/4 155/41/4
f 153/42/4 156/40/4 154/43/4
f 157/33/4 158/1/4 159/3/4
f 157/33/4 160/35/4 158/1/4
f 161/57/4 162/58/4 163/1/4
f 161/57/4 164/59/4 162/58/4
f 165/57/14 166/58/14 167/1/14
f 165/57/15 168/59/15 166/58/15
f 169/60/16 170/32/16 171/61/16
f 169/60/2 172/62/2 170/32/2
f 173/63/2 174/64/2 175/61/2
f 173/63/17 176/65/17 174/64/17
f 177/66/2 178/67/2 179/68/2
f 177/66/2 180/69/2 178/67/2
f 181/67/2 182/66/2 183/69/2
f 181/67/2 184/68/2 182/66/2
f 185/70/2 186/69/2 187/66/2
f 185/70/2 188/71/2 186/69/2
f 189/57/2 190/58/2 191/1/2
f 189/57/2 192/59/2 190/58/2
f 193/1/2 194/59/2 195/58/2
f 193/1/2 196/57/2 194/59/2
f 197/32/2 198/60/2 199/62/2
f 197/32/2 200/61/2 198/60/2
f 201/72/2 202/73/2 203/4/2
f 201/72/2 204/74/2 202/73/2
f 205/72/2 206/73/2 207/4/2
f 205/72/2 208/74/2 206/73/2
f 209/4/2 210/74/2 211/73/2
f 209/4/2 212/72/2 210/74/2
f 213/1/2 214/75/2 215/57/2
f 213/1/2 216/35/2 214/75/2
f 217/65/2 218/66/2 219/64/2
f 217/65/2 220/70/2 218/66/2
f 221/76/2 222/61/2 223/64/2
f 221/76/2 224/60/2 222/61/2
f 225/57/2 226/58/2 227/1/2
f 225/57/2 228/59/2 226/58/2
f 229/77/2 230/78/2 231/79/2
f 229/77/2 232/80/2 230/78/2
f 233/79/2 234/81/2 235/82/2
f 233/79/2 236/78/2 234/81/2
f 237/33/2 238/1/2 239/3/2
f 237/33/2 240/35/2 238/1/2
f 241/57/2 242/58/2 243/1/2
f 241/57/2 244/59/2 242/58/2
f 245/32/2 246/33/2 247/34/2
f 245/32/2 248/35/2 246/33/2
usemtl pxArt (1)
f 249/7/1 250/30/1 251/31/1
f 249/7/1 252/5/1 250/30/1
f 253/30/2 254/7/2 255/5/2
f 253/30/2 256/31/2 254/7/2
f 257/5/18 258/31/18 259/7/18
f 257/5/18 260/30/18 258/31/18
f 261/5/19 262/31/19 263/7/19
f 261/5/19 264/30/19 262/31/19
f 265/7/2 266/30/2 267/31/2
f 265/7/2 268/5/2 266/30/2
f 269/30/20 270/7/20 271/5/20
f 269/30/20 272/31/20 270/7/20
f 273/30/18 274/7/18 275/5/18
f 273/30/18 276/31/18 274/7/18
f 277/30/21 278/7/21 279/5/21
f 277/30/21 280/31/21 278/7/21
f 281/1/2 282/70/2 283/66/2
f 281/1/2 284/3/2 282/70/2
f 285/1/1 286/70/1 287/66/1
f 285/1/1 288/3/1 286/70/1
f 289/66/18 290/57/18 291/1/18
f 289/66/18 292/68/18 290/57/18
f 293/1/20 294/73/20 295/4/20
f 293/1/20 296/57/20 294/73/20
f 297/1/21 298/68/21 299/57/21
f 297/1/21 300/66/21 298/68/21
f 301/1/2 302/2/2 303/3/2
f 301/1/2 304/4/2 302/2/2
f 305/1/1 306/2/1 307/3/1
f 305/1/1 308/4/1 306/2/1
f 309/1/1 310/2/1 311/3/1
f 309/1/1 312/4/1 310/2/1
